<svg xmlns="http://www.w3.org/2000/svg" viewBox="0 0 640 320" width="640" height="320">
  <defs>
    <style>
      .led { rx: 3; ry: 3; }
      .green { fill: #00FF00; }
      .cyan { fill: #00FFFF; }
    </style>
  </defs>

  <!-- Black background -->
  <rect width="640" height="320" fill="#0a0a0a"/>

  <!-- Grid pattern -->
  <g opacity="0.08">
    <pattern id="grid" width="10" height="10" patternUnits="userSpaceOnUse">
      <rect width="8" height="8" fill="#222" rx="2" ry="2"/>
    </pattern>
    <rect width="640" height="320" fill="url(#grid)"/>
  </g>

  <!-- Status border (green for active) - 2px equivalent at 10x scale -->
  <rect x="10" y="10" width="620" height="300" fill="none" stroke="#00FF00" stroke-width="20"/>

  <!-- "AVAILABLE" text centered in green - Line 0 -->
  <!-- A -->
  <rect x="145" y="30" width="8" height="8" class="led green"/>
  <rect x="155" y="30" width="8" height="8" class="led green"/>
  <rect x="135" y="40" width="8" height="8" class="led green"/>
  <rect x="165" y="40" width="8" height="8" class="led green"/>
  <rect x="135" y="50" width="8" height="8" class="led green"/>
  <rect x="145" y="50" width="8" height="8" class="led green"/>
  <rect x="155" y="50" width="8" height="8" class="led green"/>
  <rect x="165" y="50" width="8" height="8" class="led green"/>
  <rect x="135" y="60" width="8" height="8" class="led green"/>
  <rect x="165" y="60" width="8" height="8" class="led green"/>
  <!-- V -->
  <rect x="185" y="30" width="8" height="8" class="led green"/>
  <rect x="215" y="30" width="8" height="8" class="led green"/>
  <rect x="190" y="40" width="8" height="8" class="led green"/>
  <rect x="210" y="40" width="8" height="8" class="led green"/>
  <rect x="195" y="50" width="8" height="8" class="led green"/>
  <rect x="205" y="50" width="8" height="8" class="led green"/>
  <rect x="200" y="60" width="8" height="8" class="led green"/>
  <!-- A -->
  <rect x="235" y="30" width="8" height="8" class="led green"/>
  <rect x="245" y="30" width="8" height="8" class="led green"/>
  <rect x="225" y="40" width="8" height="8" class="led green"/>
  <rect x="255" y="40" width="8" height="8" class="led green"/>
  <rect x="225" y="50" width="8" height="8" class="led green"/>
  <rect x="235" y="50" width="8" height="8" class="led green"/>
  <rect x="245" y="50" width="8" height="8" class="led green"/>
  <rect x="255" y="50" width="8" height="8" class="led green"/>
  <rect x="225" y="60" width="8" height="8" class="led green"/>
  <rect x="255" y="60" width="8" height="8" class="led green"/>
  <!-- I -->
  <rect x="275" y="30" width="8" height="8" class="led green"/>
  <rect x="285" y="30" width="8" height="8" class="led green"/>
  <rect x="295" y="30" width="8" height="8" class="led green"/>
  <rect x="285" y="40" width="8" height="8" class="led green"/>
  <rect x="285" y="50" width="8" height="8" class="led green"/>
  <rect x="275" y="60" width="8" height="8" class="led green"/>
  <rect x="285" y="60" width="8" height="8" class="led green"/>
  <rect x="295" y="60" width="8" height="8" class="led green"/>
  <!-- L -->
  <rect x="315" y="30" width="8" height="8" class="led green"/>
  <rect x="315" y="40" width="8" height="8" class="led green"/>
  <rect x="315" y="50" width="8" height="8" class="led green"/>
  <rect x="315" y="60" width="8" height="8" class="led green"/>
  <rect x="325" y="60" width="8" height="8" class="led green"/>
  <rect x="335" y="60" width="8" height="8" class="led green"/>
  <!-- A -->
  <rect x="365" y="30" width="8" height="8" class="led green"/>
  <rect x="375" y="30" width="8" height="8" class="led green"/>
  <rect x="355" y="40" width="8" height="8" class="led green"/>
  <rect x="385" y="40" width="8" height="8" class="led green"/>
  <rect x="355" y="50" width="8" height="8" class="led green"/>
  <rect x="365" y="50" width="8" height="8" class="led green"/>
  <rect x="375" y="50" width="8" height="8" class="led green"/>
  <rect x="385" y="50" width="8" height="8" class="led green"/>
  <rect x="355" y="60" width="8" height="8" class="led green"/>
  <rect x="385" y="60" width="8" height="8" class="led green"/>
  <!-- B -->
  <rect x="405" y="30" width="8" height="8" class="led green"/>
  <rect x="415" y="30" width="8" height="8" class="led green"/>
  <rect x="405" y="40" width="8" height="8" class="led green"/>
  <rect x="425" y="40" width="8" height="8" class="led green"/>
  <rect x="405" y="50" width="8" height="8" class="led green"/>
  <rect x="415" y="50" width="8" height="8" class="led green"/>
  <rect x="405" y="60" width="8" height="8" class="led green"/>
  <rect x="415" y="60" width="8" height="8" class="led green"/>
  <rect x="425" y="60" width="8" height="8" class="led green"/>
  <!-- L -->
  <rect x="445" y="30" width="8" height="8" class="led green"/>
  <rect x="445" y="40" width="8" height="8" class="led green"/>
  <rect x="445" y="50" width="8" height="8" class="led green"/>
  <rect x="445" y="60" width="8" height="8" class="led green"/>
  <rect x="455" y="60" width="8" height="8" class="led green"/>
  <rect x="465" y="60" width="8" height="8" class="led green"/>
  <!-- E -->
  <rect x="485" y="30" width="8" height="8" class="led green"/>
  <rect x="495" y="30" width="8" height="8" class="led green"/>
  <rect x="505" y="30" width="8" height="8" class="led green"/>
  <rect x="485" y="40" width="8" height="8" class="led green"/>
  <rect x="485" y="50" width="8" height="8" class="led green"/>
  <rect x="495" y="50" width="8" height="8" class="led green"/>
  <rect x="485" y="60" width="8" height="8" class="led green"/>
  <rect x="495" y="60" width="8" height="8" class="led green"/>
  <rect x="505" y="60" width="8" height="8" class="led green"/>

  <!-- Date and Time - Line 1 (y=80) in GREEN -->
  <!-- JAN 16  2:45PM -->
  <!-- J -->
  <rect x="100" y="90" width="8" height="8" class="led green"/>
  <rect x="110" y="90" width="8" height="8" class="led green"/>
  <rect x="120" y="90" width="8" height="8" class="led green"/>
  <rect x="110" y="100" width="8" height="8" class="led green"/>
  <rect x="110" y="110" width="8" height="8" class="led green"/>
  <rect x="110" y="120" width="8" height="8" class="led green"/>
  <rect x="100" y="120" width="8" height="8" class="led green"/>
  <rect x="100" y="130" width="8" height="8" class="led green"/>
  <!-- A -->
  <rect x="145" y="90" width="8" height="8" class="led green"/>
  <rect x="155" y="90" width="8" height="8" class="led green"/>
  <rect x="135" y="100" width="8" height="8" class="led green"/>
  <rect x="165" y="100" width="8" height="8" class="led green"/>
  <rect x="135" y="110" width="8" height="8" class="led green"/>
  <rect x="145" y="110" width="8" height="8" class="led green"/>
  <rect x="155" y="110" width="8" height="8" class="led green"/>
  <rect x="165" y="110" width="8" height="8" class="led green"/>
  <rect x="135" y="120" width="8" height="8" class="led green"/>
  <rect x="165" y="120" width="8" height="8" class="led green"/>
  <rect x="135" y="130" width="8" height="8" class="led green"/>
  <rect x="165" y="130" width="8" height="8" class="led green"/>
  <!-- N -->
  <rect x="185" y="90" width="8" height="8" class="led green"/>
  <rect x="215" y="90" width="8" height="8" class="led green"/>
  <rect x="185" y="100" width="8" height="8" class="led green"/>
  <rect x="195" y="100" width="8" height="8" class="led green"/>
  <rect x="215" y="100" width="8" height="8" class="led green"/>
  <rect x="185" y="110" width="8" height="8" class="led green"/>
  <rect x="200" y="110" width="8" height="8" class="led green"/>
  <rect x="215" y="110" width="8" height="8" class="led green"/>
  <rect x="185" y="120" width="8" height="8" class="led green"/>
  <rect x="205" y="120" width="8" height="8" class="led green"/>
  <rect x="215" y="120" width="8" height="8" class="led green"/>
  <rect x="185" y="130" width="8" height="8" class="led green"/>
  <rect x="215" y="130" width="8" height="8" class="led green"/>
  <!-- Space then numbers -->
  <!-- 1 -->
  <rect x="250" y="90" width="8" height="8" class="led green"/>
  <rect x="250" y="100" width="8" height="8" class="led green"/>
  <rect x="250" y="110" width="8" height="8" class="led green"/>
  <rect x="250" y="120" width="8" height="8" class="led green"/>
  <rect x="250" y="130" width="8" height="8" class="led green"/>
  <!-- 6 -->
  <rect x="275" y="90" width="8" height="8" class="led green"/>
  <rect x="285" y="90" width="8" height="8" class="led green"/>
  <rect x="295" y="90" width="8" height="8" class="led green"/>
  <rect x="270" y="100" width="8" height="8" class="led green"/>
  <rect x="270" y="110" width="8" height="8" class="led green"/>
  <rect x="280" y="110" width="8" height="8" class="led green"/>
  <rect x="290" y="110" width="8" height="8" class="led green"/>
  <rect x="270" y="120" width="8" height="8" class="led green"/>
  <rect x="300" y="120" width="8" height="8" class="led green"/>
  <rect x="275" y="130" width="8" height="8" class="led green"/>
  <rect x="285" y="130" width="8" height="8" class="led green"/>
  <rect x="295" y="130" width="8" height="8" class="led green"/>
  <!-- 2 -->
  <rect x="345" y="90" width="8" height="8" class="led green"/>
  <rect x="355" y="90" width="8" height="8" class="led green"/>
  <rect x="365" y="90" width="8" height="8" class="led green"/>
  <rect x="370" y="100" width="8" height="8" class="led green"/>
  <rect x="355" y="110" width="8" height="8" class="led green"/>
  <rect x="345" y="120" width="8" height="8" class="led green"/>
  <rect x="345" y="130" width="8" height="8" class="led green"/>
  <rect x="355" y="130" width="8" height="8" class="led green"/>
  <rect x="365" y="130" width="8" height="8" class="led green"/>
  <!-- : -->
  <rect x="385" y="100" width="8" height="8" class="led green"/>
  <rect x="385" y="120" width="8" height="8" class="led green"/>
  <!-- 4 -->
  <rect x="405" y="90" width="8" height="8" class="led green"/>
  <rect x="425" y="90" width="8" height="8" class="led green"/>
  <rect x="405" y="100" width="8" height="8" class="led green"/>
  <rect x="425" y="100" width="8" height="8" class="led green"/>
  <rect x="405" y="110" width="8" height="8" class="led green"/>
  <rect x="415" y="110" width="8" height="8" class="led green"/>
  <rect x="425" y="110" width="8" height="8" class="led green"/>
  <rect x="425" y="120" width="8" height="8" class="led green"/>
  <rect x="425" y="130" width="8" height="8" class="led green"/>
  <!-- 5 -->
  <rect x="445" y="90" width="8" height="8" class="led green"/>
  <rect x="455" y="90" width="8" height="8" class="led green"/>
  <rect x="465" y="90" width="8" height="8" class="led green"/>
  <rect x="445" y="100" width="8" height="8" class="led green"/>
  <rect x="445" y="110" width="8" height="8" class="led green"/>
  <rect x="455" y="110" width="8" height="8" class="led green"/>
  <rect x="465" y="110" width="8" height="8" class="led green"/>
  <rect x="470" y="120" width="8" height="8" class="led green"/>
  <rect x="445" y="130" width="8" height="8" class="led green"/>
  <rect x="455" y="130" width="8" height="8" class="led green"/>
  <rect x="465" y="130" width="8" height="8" class="led green"/>
  <!-- P -->
  <rect x="490" y="90" width="8" height="8" class="led green"/>
  <rect x="500" y="90" width="8" height="8" class="led green"/>
  <rect x="490" y="100" width="8" height="8" class="led green"/>
  <rect x="510" y="100" width="8" height="8" class="led green"/>
  <rect x="490" y="110" width="8" height="8" class="led green"/>
  <rect x="500" y="110" width="8" height="8" class="led green"/>
  <rect x="490" y="120" width="8" height="8" class="led green"/>
  <rect x="490" y="130" width="8" height="8" class="led green"/>
  <!-- M -->
  <rect x="530" y="90" width="8" height="8" class="led green"/>
  <rect x="560" y="90" width="8" height="8" class="led green"/>
  <rect x="530" y="100" width="8" height="8" class="led green"/>
  <rect x="540" y="100" width="8" height="8" class="led green"/>
  <rect x="550" y="100" width="8" height="8" class="led green"/>
  <rect x="560" y="100" width="8" height="8" class="led green"/>
  <rect x="530" y="110" width="8" height="8" class="led green"/>
  <rect x="545" y="110" width="8" height="8" class="led green"/>
  <rect x="560" y="110" width="8" height="8" class="led green"/>
  <rect x="530" y="120" width="8" height="8" class="led green"/>
  <rect x="560" y="120" width="8" height="8" class="led green"/>
  <rect x="530" y="130" width="8" height="8" class="led green"/>
  <rect x="560" y="130" width="8" height="8" class="led green"/>

  <!-- Bottom: 72F 45% AQ87 - CYAN (Line 3, y=240) -->
  <!-- 7 -->
  <rect x="60" y="240" width="8" height="8" class="led cyan"/>
  <rect x="70" y="240" width="8" height="8" class="led cyan"/>
  <rect x="80" y="240" width="8" height="8" class="led cyan"/>
  <rect x="80" y="250" width="8" height="8" class="led cyan"/>
  <rect x="70" y="260" width="8" height="8" class="led cyan"/>
  <rect x="60" y="270" width="8" height="8" class="led cyan"/>
  <rect x="60" y="280" width="8" height="8" class="led cyan"/>
  <!-- 2 -->
  <rect x="100" y="240" width="8" height="8" class="led cyan"/>
  <rect x="110" y="240" width="8" height="8" class="led cyan"/>
  <rect x="120" y="240" width="8" height="8" class="led cyan"/>
  <rect x="120" y="250" width="8" height="8" class="led cyan"/>
  <rect x="110" y="260" width="8" height="8" class="led cyan"/>
  <rect x="100" y="270" width="8" height="8" class="led cyan"/>
  <rect x="100" y="280" width="8" height="8" class="led cyan"/>
  <rect x="110" y="280" width="8" height="8" class="led cyan"/>
  <rect x="120" y="280" width="8" height="8" class="led cyan"/>
  <!-- F -->
  <rect x="150" y="240" width="8" height="8" class="led cyan"/>
  <rect x="160" y="240" width="8" height="8" class="led cyan"/>
  <rect x="170" y="240" width="8" height="8" class="led cyan"/>
  <rect x="150" y="250" width="8" height="8" class="led cyan"/>
  <rect x="150" y="260" width="8" height="8" class="led cyan"/>
  <rect x="160" y="260" width="8" height="8" class="led cyan"/>
  <rect x="150" y="270" width="8" height="8" class="led cyan"/>
  <rect x="150" y="280" width="8" height="8" class="led cyan"/>

  <!-- 45% centered -->
  <!-- 4 -->
  <rect x="255" y="240" width="8" height="8" class="led cyan"/>
  <rect x="275" y="240" width="8" height="8" class="led cyan"/>
  <rect x="255" y="250" width="8" height="8" class="led cyan"/>
  <rect x="275" y="250" width="8" height="8" class="led cyan"/>
  <rect x="255" y="260" width="8" height="8" class="led cyan"/>
  <rect x="265" y="260" width="8" height="8" class="led cyan"/>
  <rect x="275" y="260" width="8" height="8" class="led cyan"/>
  <rect x="275" y="270" width="8" height="8" class="led cyan"/>
  <rect x="275" y="280" width="8" height="8" class="led cyan"/>
  <!-- 5 -->
  <rect x="295" y="240" width="8" height="8" class="led cyan"/>
  <rect x="305" y="240" width="8" height="8" class="led cyan"/>
  <rect x="315" y="240" width="8" height="8" class="led cyan"/>
  <rect x="295" y="250" width="8" height="8" class="led cyan"/>
  <rect x="295" y="260" width="8" height="8" class="led cyan"/>
  <rect x="305" y="260" width="8" height="8" class="led cyan"/>
  <rect x="315" y="260" width="8" height="8" class="led cyan"/>
  <rect x="320" y="270" width="8" height="8" class="led cyan"/>
  <rect x="295" y="280" width="8" height="8" class="led cyan"/>
  <rect x="305" y="280" width="8" height="8" class="led cyan"/>
  <rect x="315" y="280" width="8" height="8" class="led cyan"/>
  <!-- % -->
  <rect x="340" y="240" width="8" height="8" class="led cyan"/>
  <rect x="360" y="240" width="8" height="8" class="led cyan"/>
  <rect x="355" y="250" width="8" height="8" class="led cyan"/>
  <rect x="350" y="260" width="8" height="8" class="led cyan"/>
  <rect x="345" y="270" width="8" height="8" class="led cyan"/>
  <rect x="340" y="280" width="8" height="8" class="led cyan"/>
  <rect x="360" y="280" width="8" height="8" class="led cyan"/>

  <!-- AQ87 right -->
  <!-- A -->
  <rect x="440" y="240" width="8" height="8" class="led cyan"/>
  <rect x="450" y="240" width="8" height="8" class="led cyan"/>
  <rect x="435" y="250" width="8" height="8" class="led cyan"/>
  <rect x="455" y="250" width="8" height="8" class="led cyan"/>
  <rect x="435" y="260" width="8" height="8" class="led cyan"/>
  <rect x="440" y="260" width="8" height="8" class="led cyan"/>
  <rect x="450" y="260" width="8" height="8" class="led cyan"/>
  <rect x="455" y="260" width="8" height="8" class="led cyan"/>
  <rect x="435" y="270" width="8" height="8" class="led cyan"/>
  <rect x="455" y="270" width="8" height="8" class="led cyan"/>
  <!-- Q -->
  <rect x="480" y="240" width="8" height="8" class="led cyan"/>
  <rect x="490" y="240" width="8" height="8" class="led cyan"/>
  <rect x="475" y="250" width="8" height="8" class="led cyan"/>
  <rect x="495" y="250" width="8" height="8" class="led cyan"/>
  <rect x="475" y="260" width="8" height="8" class="led cyan"/>
  <rect x="495" y="260" width="8" height="8" class="led cyan"/>
  <rect x="480" y="270" width="8" height="8" class="led cyan"/>
  <rect x="490" y="270" width="8" height="8" class="led cyan"/>
  <rect x="500" y="270" width="8" height="8" class="led cyan"/>
  <!-- 8 -->
  <rect x="525" y="240" width="8" height="8" class="led cyan"/>
  <rect x="535" y="240" width="8" height="8" class="led cyan"/>
  <rect x="520" y="250" width="8" height="8" class="led cyan"/>
  <rect x="540" y="250" width="8" height="8" class="led cyan"/>
  <rect x="525" y="260" width="8" height="8" class="led cyan"/>
  <rect x="535" y="260" width="8" height="8" class="led cyan"/>
  <rect x="520" y="270" width="8" height="8" class="led cyan"/>
  <rect x="540" y="270" width="8" height="8" class="led cyan"/>
  <rect x="525" y="280" width="8" height="8" class="led cyan"/>
  <rect x="535" y="280" width="8" height="8" class="led cyan"/>
  <!-- 7 -->
  <rect x="560" y="240" width="8" height="8" class="led cyan"/>
  <rect x="570" y="240" width="8" height="8" class="led cyan"/>
  <rect x="580" y="240" width="8" height="8" class="led cyan"/>
  <rect x="580" y="250" width="8" height="8" class="led cyan"/>
  <rect x="575" y="260" width="8" height="8" class="led cyan"/>
  <rect x="570" y="270" width="8" height="8" class="led cyan"/>
  <rect x="570" y="280" width="8" height="8" class="led cyan"/>
</svg>
