<svg xmlns="http://www.w3.org/2000/svg" viewBox="0 0 640 320" width="640" height="320">
  <defs>
    <style>
      .led { rx: 3; ry: 3; }
      .red { fill: #FF0000; }
      .green { fill: #00FF00; }
      .cyan { fill: #00FFFF; }
    </style>
  </defs>

  <!-- Black background -->
  <rect width="640" height="320" fill="#0a0a0a"/>

  <!-- Grid pattern -->
  <g opacity="0.08">
    <pattern id="grid" width="10" height="10" patternUnits="userSpaceOnUse">
      <rect width="8" height="8" fill="#222" rx="2" ry="2"/>
    </pattern>
    <rect width="640" height="320" fill="url(#grid)"/>
  </g>

  <!-- Status border (red for meeting/in-call) - 2px equivalent at 10x scale -->
  <rect x="10" y="10" width="620" height="300" fill="none" stroke="#FF0000" stroke-width="20"/>

  <!-- "IN A CALL" text centered in red - Line 0 -->
  <!-- I -->
  <rect x="170" y="30" width="8" height="8" class="led red"/>
  <rect x="180" y="30" width="8" height="8" class="led red"/>
  <rect x="190" y="30" width="8" height="8" class="led red"/>
  <rect x="180" y="40" width="8" height="8" class="led red"/>
  <rect x="180" y="50" width="8" height="8" class="led red"/>
  <rect x="170" y="60" width="8" height="8" class="led red"/>
  <rect x="180" y="60" width="8" height="8" class="led red"/>
  <rect x="190" y="60" width="8" height="8" class="led red"/>
  <!-- N -->
  <rect x="210" y="30" width="8" height="8" class="led red"/>
  <rect x="240" y="30" width="8" height="8" class="led red"/>
  <rect x="210" y="40" width="8" height="8" class="led red"/>
  <rect x="220" y="40" width="8" height="8" class="led red"/>
  <rect x="240" y="40" width="8" height="8" class="led red"/>
  <rect x="210" y="50" width="8" height="8" class="led red"/>
  <rect x="230" y="50" width="8" height="8" class="led red"/>
  <rect x="240" y="50" width="8" height="8" class="led red"/>
  <rect x="210" y="60" width="8" height="8" class="led red"/>
  <rect x="240" y="60" width="8" height="8" class="led red"/>
  <!-- Space -->
  <!-- A -->
  <rect x="275" y="30" width="8" height="8" class="led red"/>
  <rect x="285" y="30" width="8" height="8" class="led red"/>
  <rect x="265" y="40" width="8" height="8" class="led red"/>
  <rect x="295" y="40" width="8" height="8" class="led red"/>
  <rect x="265" y="50" width="8" height="8" class="led red"/>
  <rect x="275" y="50" width="8" height="8" class="led red"/>
  <rect x="285" y="50" width="8" height="8" class="led red"/>
  <rect x="295" y="50" width="8" height="8" class="led red"/>
  <rect x="265" y="60" width="8" height="8" class="led red"/>
  <rect x="295" y="60" width="8" height="8" class="led red"/>
  <!-- Space -->
  <!-- C -->
  <rect x="330" y="30" width="8" height="8" class="led red"/>
  <rect x="340" y="30" width="8" height="8" class="led red"/>
  <rect x="350" y="30" width="8" height="8" class="led red"/>
  <rect x="320" y="40" width="8" height="8" class="led red"/>
  <rect x="320" y="50" width="8" height="8" class="led red"/>
  <rect x="330" y="60" width="8" height="8" class="led red"/>
  <rect x="340" y="60" width="8" height="8" class="led red"/>
  <rect x="350" y="60" width="8" height="8" class="led red"/>
  <!-- A -->
  <rect x="385" y="30" width="8" height="8" class="led red"/>
  <rect x="395" y="30" width="8" height="8" class="led red"/>
  <rect x="375" y="40" width="8" height="8" class="led red"/>
  <rect x="405" y="40" width="8" height="8" class="led red"/>
  <rect x="375" y="50" width="8" height="8" class="led red"/>
  <rect x="385" y="50" width="8" height="8" class="led red"/>
  <rect x="395" y="50" width="8" height="8" class="led red"/>
  <rect x="405" y="50" width="8" height="8" class="led red"/>
  <rect x="375" y="60" width="8" height="8" class="led red"/>
  <rect x="405" y="60" width="8" height="8" class="led red"/>
  <!-- L -->
  <rect x="425" y="30" width="8" height="8" class="led red"/>
  <rect x="425" y="40" width="8" height="8" class="led red"/>
  <rect x="425" y="50" width="8" height="8" class="led red"/>
  <rect x="425" y="60" width="8" height="8" class="led red"/>
  <rect x="435" y="60" width="8" height="8" class="led red"/>
  <rect x="445" y="60" width="8" height="8" class="led red"/>
  <!-- L -->
  <rect x="465" y="30" width="8" height="8" class="led red"/>
  <rect x="465" y="40" width="8" height="8" class="led red"/>
  <rect x="465" y="50" width="8" height="8" class="led red"/>
  <rect x="465" y="60" width="8" height="8" class="led red"/>
  <rect x="475" y="60" width="8" height="8" class="led red"/>
  <rect x="485" y="60" width="8" height="8" class="led red"/>

  <!-- Camera ON (green) and Mic OFF (red) - Line 1 -->
  <!-- Camera icon -->
  <rect x="80" y="100" width="8" height="8" class="led green"/>
  <rect x="90" y="100" width="8" height="8" class="led green"/>
  <rect x="100" y="100" width="8" height="8" class="led green"/>
  <rect x="110" y="100" width="8" height="8" class="led green"/>
  <rect x="120" y="100" width="8" height="8" class="led green"/>
  <rect x="80" y="110" width="8" height="8" class="led green"/>
  <rect x="90" y="110" width="8" height="8" class="led green"/>
  <rect x="100" y="110" width="8" height="8" class="led green"/>
  <rect x="110" y="110" width="8" height="8" class="led green"/>
  <rect x="120" y="110" width="8" height="8" class="led green"/>
  <rect x="80" y="120" width="8" height="8" class="led green"/>
  <rect x="90" y="120" width="8" height="8" class="led green"/>
  <rect x="100" y="120" width="8" height="8" class="led green"/>
  <rect x="110" y="120" width="8" height="8" class="led green"/>
  <rect x="120" y="120" width="8" height="8" class="led green"/>
  <rect x="140" y="105" width="8" height="8" class="led green"/>
  <rect x="150" y="110" width="8" height="8" class="led green"/>
  <rect x="140" y="115" width="8" height="8" class="led green"/>
  <!-- "ON" label -->
  <rect x="175" y="100" width="8" height="8" class="led green"/>
  <rect x="185" y="100" width="8" height="8" class="led green"/>
  <rect x="170" y="110" width="8" height="8" class="led green"/>
  <rect x="190" y="110" width="8" height="8" class="led green"/>
  <rect x="175" y="120" width="8" height="8" class="led green"/>
  <rect x="185" y="120" width="8" height="8" class="led green"/>
  <rect x="210" y="100" width="8" height="8" class="led green"/>
  <rect x="230" y="100" width="8" height="8" class="led green"/>
  <rect x="210" y="110" width="8" height="8" class="led green"/>
  <rect x="220" y="110" width="8" height="8" class="led green"/>
  <rect x="230" y="110" width="8" height="8" class="led green"/>
  <rect x="210" y="120" width="8" height="8" class="led green"/>
  <rect x="230" y="120" width="8" height="8" class="led green"/>

  <!-- Mic icon (muted - red) -->
  <rect x="390" y="95" width="8" height="8" class="led red"/>
  <rect x="400" y="95" width="8" height="8" class="led red"/>
  <rect x="410" y="95" width="8" height="8" class="led red"/>
  <rect x="385" y="105" width="8" height="8" class="led red"/>
  <rect x="395" y="105" width="8" height="8" class="led red"/>
  <rect x="405" y="105" width="8" height="8" class="led red"/>
  <rect x="415" y="105" width="8" height="8" class="led red"/>
  <rect x="390" y="115" width="8" height="8" class="led red"/>
  <rect x="400" y="115" width="8" height="8" class="led red"/>
  <rect x="410" y="115" width="8" height="8" class="led red"/>
  <rect x="400" y="125" width="8" height="8" class="led red"/>
  <!-- "OFF" label -->
  <rect x="440" y="100" width="8" height="8" class="led red"/>
  <rect x="450" y="100" width="8" height="8" class="led red"/>
  <rect x="435" y="110" width="8" height="8" class="led red"/>
  <rect x="455" y="110" width="8" height="8" class="led red"/>
  <rect x="440" y="120" width="8" height="8" class="led red"/>
  <rect x="450" y="120" width="8" height="8" class="led red"/>
  <rect x="475" y="100" width="8" height="8" class="led red"/>
  <rect x="485" y="100" width="8" height="8" class="led red"/>
  <rect x="495" y="100" width="8" height="8" class="led red"/>
  <rect x="475" y="110" width="8" height="8" class="led red"/>
  <rect x="475" y="120" width="8" height="8" class="led red"/>
  <rect x="485" y="120" width="8" height="8" class="led red"/>
  <rect x="515" y="100" width="8" height="8" class="led red"/>
  <rect x="525" y="100" width="8" height="8" class="led red"/>
  <rect x="535" y="100" width="8" height="8" class="led red"/>
  <rect x="515" y="110" width="8" height="8" class="led red"/>
  <rect x="515" y="120" width="8" height="8" class="led red"/>
  <rect x="525" y="120" width="8" height="8" class="led red"/>

  <!-- Bottom: 72F 45% AQ87 - CYAN -->
  <!-- 7 -->
  <rect x="60" y="240" width="8" height="8" class="led cyan"/>
  <rect x="70" y="240" width="8" height="8" class="led cyan"/>
  <rect x="80" y="240" width="8" height="8" class="led cyan"/>
  <rect x="80" y="250" width="8" height="8" class="led cyan"/>
  <rect x="70" y="260" width="8" height="8" class="led cyan"/>
  <rect x="60" y="270" width="8" height="8" class="led cyan"/>
  <rect x="60" y="280" width="8" height="8" class="led cyan"/>
  <!-- 2 -->
  <rect x="100" y="240" width="8" height="8" class="led cyan"/>
  <rect x="110" y="240" width="8" height="8" class="led cyan"/>
  <rect x="120" y="240" width="8" height="8" class="led cyan"/>
  <rect x="120" y="250" width="8" height="8" class="led cyan"/>
  <rect x="110" y="260" width="8" height="8" class="led cyan"/>
  <rect x="100" y="270" width="8" height="8" class="led cyan"/>
  <rect x="100" y="280" width="8" height="8" class="led cyan"/>
  <rect x="110" y="280" width="8" height="8" class="led cyan"/>
  <rect x="120" y="280" width="8" height="8" class="led cyan"/>
  <!-- F -->
  <rect x="150" y="240" width="8" height="8" class="led cyan"/>
  <rect x="160" y="240" width="8" height="8" class="led cyan"/>
  <rect x="170" y="240" width="8" height="8" class="led cyan"/>
  <rect x="150" y="250" width="8" height="8" class="led cyan"/>
  <rect x="150" y="260" width="8" height="8" class="led cyan"/>
  <rect x="160" y="260" width="8" height="8" class="led cyan"/>
  <rect x="150" y="270" width="8" height="8" class="led cyan"/>
  <rect x="150" y="280" width="8" height="8" class="led cyan"/>

  <!-- 45% centered -->
  <rect x="255" y="240" width="8" height="8" class="led cyan"/>
  <rect x="275" y="240" width="8" height="8" class="led cyan"/>
  <rect x="255" y="250" width="8" height="8" class="led cyan"/>
  <rect x="275" y="250" width="8" height="8" class="led cyan"/>
  <rect x="255" y="260" width="8" height="8" class="led cyan"/>
  <rect x="265" y="260" width="8" height="8" class="led cyan"/>
  <rect x="275" y="260" width="8" height="8" class="led cyan"/>
  <rect x="275" y="270" width="8" height="8" class="led cyan"/>
  <rect x="275" y="280" width="8" height="8" class="led cyan"/>
  <rect x="295" y="240" width="8" height="8" class="led cyan"/>
  <rect x="305" y="240" width="8" height="8" class="led cyan"/>
  <rect x="315" y="240" width="8" height="8" class="led cyan"/>
  <rect x="295" y="250" width="8" height="8" class="led cyan"/>
  <rect x="295" y="260" width="8" height="8" class="led cyan"/>
  <rect x="305" y="260" width="8" height="8" class="led cyan"/>
  <rect x="315" y="260" width="8" height="8" class="led cyan"/>
  <rect x="320" y="270" width="8" height="8" class="led cyan"/>
  <rect x="295" y="280" width="8" height="8" class="led cyan"/>
  <rect x="305" y="280" width="8" height="8" class="led cyan"/>
  <rect x="315" y="280" width="8" height="8" class="led cyan"/>
  <rect x="340" y="240" width="8" height="8" class="led cyan"/>
  <rect x="360" y="240" width="8" height="8" class="led cyan"/>
  <rect x="355" y="250" width="8" height="8" class="led cyan"/>
  <rect x="350" y="260" width="8" height="8" class="led cyan"/>
  <rect x="345" y="270" width="8" height="8" class="led cyan"/>
  <rect x="340" y="280" width="8" height="8" class="led cyan"/>
  <rect x="360" y="280" width="8" height="8" class="led cyan"/>

  <!-- AQ87 right -->
  <rect x="440" y="240" width="8" height="8" class="led cyan"/>
  <rect x="450" y="240" width="8" height="8" class="led cyan"/>
  <rect x="435" y="250" width="8" height="8" class="led cyan"/>
  <rect x="455" y="250" width="8" height="8" class="led cyan"/>
  <rect x="435" y="260" width="8" height="8" class="led cyan"/>
  <rect x="440" y="260" width="8" height="8" class="led cyan"/>
  <rect x="450" y="260" width="8" height="8" class="led cyan"/>
  <rect x="455" y="260" width="8" height="8" class="led cyan"/>
  <rect x="435" y="270" width="8" height="8" class="led cyan"/>
  <rect x="455" y="270" width="8" height="8" class="led cyan"/>
  <rect x="480" y="240" width="8" height="8" class="led cyan"/>
  <rect x="490" y="240" width="8" height="8" class="led cyan"/>
  <rect x="475" y="250" width="8" height="8" class="led cyan"/>
  <rect x="495" y="250" width="8" height="8" class="led cyan"/>
  <rect x="475" y="260" width="8" height="8" class="led cyan"/>
  <rect x="495" y="260" width="8" height="8" class="led cyan"/>
  <rect x="480" y="270" width="8" height="8" class="led cyan"/>
  <rect x="490" y="270" width="8" height="8" class="led cyan"/>
  <rect x="500" y="270" width="8" height="8" class="led cyan"/>
  <rect x="525" y="240" width="8" height="8" class="led cyan"/>
  <rect x="535" y="240" width="8" height="8" class="led cyan"/>
  <rect x="520" y="250" width="8" height="8" class="led cyan"/>
  <rect x="540" y="250" width="8" height="8" class="led cyan"/>
  <rect x="525" y="260" width="8" height="8" class="led cyan"/>
  <rect x="535" y="260" width="8" height="8" class="led cyan"/>
  <rect x="520" y="270" width="8" height="8" class="led cyan"/>
  <rect x="540" y="270" width="8" height="8" class="led cyan"/>
  <rect x="525" y="280" width="8" height="8" class="led cyan"/>
  <rect x="535" y="280" width="8" height="8" class="led cyan"/>
  <rect x="560" y="240" width="8" height="8" class="led cyan"/>
  <rect x="570" y="240" width="8" height="8" class="led cyan"/>
  <rect x="580" y="240" width="8" height="8" class="led cyan"/>
  <rect x="580" y="250" width="8" height="8" class="led cyan"/>
  <rect x="575" y="260" width="8" height="8" class="led cyan"/>
  <rect x="570" y="270" width="8" height="8" class="led cyan"/>
  <rect x="570" y="280" width="8" height="8" class="led cyan"/>
</svg>
