<svg xmlns="http://www.w3.org/2000/svg" viewBox="0 0 640 320" width="640" height="320">
  <defs>
    <style>
      .led { rx: 3; ry: 3; }
      .red { fill: #FF0000; }
      .cyan { fill: #00FFFF; }
      .white { fill: #FFFFFF; }
    </style>
  </defs>
  
  <!-- Black background -->
  <rect width="640" height="320" fill="#0a0a0a"/>
  
  <!-- Grid pattern -->
  <g opacity="0.08">
    <pattern id="grid" width="10" height="10" patternUnits="userSpaceOnUse">
      <rect width="8" height="8" fill="#222" rx="2" ry="2"/>
    </pattern>
    <rect width="640" height="320" fill="url(#grid)"/>
  </g>
  
  <!-- Status Circle - Red -->
  <rect x="290" y="10" width="8" height="8" class="led red"/>
  <rect x="300" y="10" width="8" height="8" class="led red"/>
  <rect x="310" y="10" width="8" height="8" class="led red"/>
  <rect x="320" y="10" width="8" height="8" class="led red"/>
  <rect x="330" y="10" width="8" height="8" class="led red"/>
  <rect x="340" y="10" width="8" height="8" class="led red"/>
  <rect x="280" y="20" width="8" height="8" class="led red"/>
  <rect x="290" y="20" width="8" height="8" class="led red"/>
  <rect x="300" y="20" width="8" height="8" class="led red"/>
  <rect x="310" y="20" width="8" height="8" class="led red"/>
  <rect x="320" y="20" width="8" height="8" class="led red"/>
  <rect x="330" y="20" width="8" height="8" class="led red"/>
  <rect x="340" y="20" width="8" height="8" class="led red"/>
  <rect x="350" y="20" width="8" height="8" class="led red"/>
  <rect x="270" y="30" width="8" height="8" class="led red"/>
  <rect x="280" y="30" width="8" height="8" class="led red"/>
  <rect x="290" y="30" width="8" height="8" class="led red"/>
  <rect x="300" y="30" width="8" height="8" class="led red"/>
  <rect x="310" y="30" width="8" height="8" class="led red"/>
  <rect x="320" y="30" width="8" height="8" class="led red"/>
  <rect x="330" y="30" width="8" height="8" class="led red"/>
  <rect x="340" y="30" width="8" height="8" class="led red"/>
  <rect x="350" y="30" width="8" height="8" class="led red"/>
  <rect x="360" y="30" width="8" height="8" class="led red"/>
  <rect x="270" y="40" width="8" height="8" class="led red"/>
  <rect x="280" y="40" width="8" height="8" class="led red"/>
  <rect x="290" y="40" width="8" height="8" class="led red"/>
  <rect x="300" y="40" width="8" height="8" class="led red"/>
  <rect x="310" y="40" width="8" height="8" class="led red"/>
  <rect x="320" y="40" width="8" height="8" class="led red"/>
  <rect x="330" y="40" width="8" height="8" class="led red"/>
  <rect x="340" y="40" width="8" height="8" class="led red"/>
  <rect x="350" y="40" width="8" height="8" class="led red"/>
  <rect x="360" y="40" width="8" height="8" class="led red"/>
  <rect x="270" y="50" width="8" height="8" class="led red"/>
  <rect x="280" y="50" width="8" height="8" class="led red"/>
  <rect x="290" y="50" width="8" height="8" class="led red"/>
  <rect x="300" y="50" width="8" height="8" class="led red"/>
  <rect x="310" y="50" width="8" height="8" class="led red"/>
  <rect x="320" y="50" width="8" height="8" class="led red"/>
  <rect x="330" y="50" width="8" height="8" class="led red"/>
  <rect x="340" y="50" width="8" height="8" class="led red"/>
  <rect x="350" y="50" width="8" height="8" class="led red"/>
  <rect x="360" y="50" width="8" height="8" class="led red"/>
  <rect x="270" y="60" width="8" height="8" class="led red"/>
  <rect x="280" y="60" width="8" height="8" class="led red"/>
  <rect x="290" y="60" width="8" height="8" class="led red"/>
  <rect x="300" y="60" width="8" height="8" class="led red"/>
  <rect x="310" y="60" width="8" height="8" class="led red"/>
  <rect x="320" y="60" width="8" height="8" class="led red"/>
  <rect x="330" y="60" width="8" height="8" class="led red"/>
  <rect x="340" y="60" width="8" height="8" class="led red"/>
  <rect x="350" y="60" width="8" height="8" class="led red"/>
  <rect x="360" y="60" width="8" height="8" class="led red"/>
  <rect x="280" y="70" width="8" height="8" class="led red"/>
  <rect x="290" y="70" width="8" height="8" class="led red"/>
  <rect x="300" y="70" width="8" height="8" class="led red"/>
  <rect x="310" y="70" width="8" height="8" class="led red"/>
  <rect x="320" y="70" width="8" height="8" class="led red"/>
  <rect x="330" y="70" width="8" height="8" class="led red"/>
  <rect x="340" y="70" width="8" height="8" class="led red"/>
  <rect x="350" y="70" width="8" height="8" class="led red"/>
  <rect x="290" y="80" width="8" height="8" class="led red"/>
  <rect x="300" y="80" width="8" height="8" class="led red"/>
  <rect x="310" y="80" width="8" height="8" class="led red"/>
  <rect x="320" y="80" width="8" height="8" class="led red"/>
  <rect x="330" y="80" width="8" height="8" class="led red"/>
  <rect x="340" y="80" width="8" height="8" class="led red"/>
  
  <!-- "DND" text centered - large -->
  <!-- D -->
  <rect x="230" y="100" width="8" height="8" class="led red"/>
  <rect x="240" y="100" width="8" height="8" class="led red"/>
  <rect x="250" y="100" width="8" height="8" class="led red"/>
  <rect x="230" y="110" width="8" height="8" class="led red"/>
  <rect x="260" y="110" width="8" height="8" class="led red"/>
  <rect x="230" y="120" width="8" height="8" class="led red"/>
  <rect x="260" y="120" width="8" height="8" class="led red"/>
  <rect x="230" y="130" width="8" height="8" class="led red"/>
  <rect x="240" y="130" width="8" height="8" class="led red"/>
  <rect x="250" y="130" width="8" height="8" class="led red"/>
  <!-- N -->
  <rect x="290" y="100" width="8" height="8" class="led red"/>
  <rect x="330" y="100" width="8" height="8" class="led red"/>
  <rect x="290" y="110" width="8" height="8" class="led red"/>
  <rect x="300" y="110" width="8" height="8" class="led red"/>
  <rect x="330" y="110" width="8" height="8" class="led red"/>
  <rect x="290" y="120" width="8" height="8" class="led red"/>
  <rect x="310" y="120" width="8" height="8" class="led red"/>
  <rect x="320" y="120" width="8" height="8" class="led red"/>
  <rect x="330" y="120" width="8" height="8" class="led red"/>
  <rect x="290" y="130" width="8" height="8" class="led red"/>
  <rect x="330" y="130" width="8" height="8" class="led red"/>
  <!-- D -->
  <rect x="360" y="100" width="8" height="8" class="led red"/>
  <rect x="370" y="100" width="8" height="8" class="led red"/>
  <rect x="380" y="100" width="8" height="8" class="led red"/>
  <rect x="360" y="110" width="8" height="8" class="led red"/>
  <rect x="390" y="110" width="8" height="8" class="led red"/>
  <rect x="360" y="120" width="8" height="8" class="led red"/>
  <rect x="390" y="120" width="8" height="8" class="led red"/>
  <rect x="360" y="130" width="8" height="8" class="led red"/>
  <rect x="370" y="130" width="8" height="8" class="led red"/>
  <rect x="380" y="130" width="8" height="8" class="led red"/>
  
  <!-- Separator -->
  <rect x="0" y="150" width="640" height="2" fill="#404040"/>
  
  <!-- Date "JAN 16" left side -->
  <rect x="20" y="165" width="8" height="8" class="led white"/>
  <rect x="30" y="165" width="8" height="8" class="led white"/>
  <rect x="40" y="165" width="8" height="8" class="led white"/>
  <rect x="30" y="175" width="8" height="8" class="led white"/>
  <rect x="30" y="185" width="8" height="8" class="led white"/>
  <rect x="20" y="185" width="8" height="8" class="led white"/>
  <rect x="60" y="165" width="8" height="8" class="led white"/>
  <rect x="70" y="165" width="8" height="8" class="led white"/>
  <rect x="55" y="175" width="8" height="8" class="led white"/>
  <rect x="75" y="175" width="8" height="8" class="led white"/>
  <rect x="55" y="185" width="8" height="8" class="led white"/>
  <rect x="60" y="185" width="8" height="8" class="led white"/>
  <rect x="70" y="185" width="8" height="8" class="led white"/>
  <rect x="75" y="185" width="8" height="8" class="led white"/>
  <rect x="90" y="165" width="8" height="8" class="led white"/>
  <rect x="110" y="165" width="8" height="8" class="led white"/>
  <rect x="90" y="175" width="8" height="8" class="led white"/>
  <rect x="100" y="175" width="8" height="8" class="led white"/>
  <rect x="110" y="175" width="8" height="8" class="led white"/>
  <rect x="90" y="185" width="8" height="8" class="led white"/>
  <rect x="110" y="185" width="8" height="8" class="led white"/>
  <rect x="140" y="165" width="8" height="8" class="led white"/>
  <rect x="140" y="175" width="8" height="8" class="led white"/>
  <rect x="140" y="185" width="8" height="8" class="led white"/>
  <rect x="160" y="165" width="8" height="8" class="led white"/>
  <rect x="170" y="165" width="8" height="8" class="led white"/>
  <rect x="155" y="175" width="8" height="8" class="led white"/>
  <rect x="160" y="175" width="8" height="8" class="led white"/>
  <rect x="170" y="175" width="8" height="8" class="led white"/>
  <rect x="155" y="185" width="8" height="8" class="led white"/>
  <rect x="175" y="185" width="8" height="8" class="led white"/>
  <rect x="160" y="195" width="8" height="8" class="led white"/>
  <rect x="170" y="195" width="8" height="8" class="led white"/>
  
  <!-- Time "2:45 PM" centered -->
  <rect x="260" y="165" width="8" height="8" class="led white"/>
  <rect x="270" y="165" width="8" height="8" class="led white"/>
  <rect x="280" y="165" width="8" height="8" class="led white"/>
  <rect x="280" y="175" width="8" height="8" class="led white"/>
  <rect x="270" y="185" width="8" height="8" class="led white"/>
  <rect x="260" y="195" width="8" height="8" class="led white"/>
  <rect x="270" y="195" width="8" height="8" class="led white"/>
  <rect x="280" y="195" width="8" height="8" class="led white"/>
  <rect x="295" y="170" width="8" height="8" class="led white"/>
  <rect x="295" y="185" width="8" height="8" class="led white"/>
  <rect x="310" y="165" width="8" height="8" class="led white"/>
  <rect x="330" y="165" width="8" height="8" class="led white"/>
  <rect x="310" y="175" width="8" height="8" class="led white"/>
  <rect x="330" y="175" width="8" height="8" class="led white"/>
  <rect x="310" y="185" width="8" height="8" class="led white"/>
  <rect x="320" y="185" width="8" height="8" class="led white"/>
  <rect x="330" y="185" width="8" height="8" class="led white"/>
  <rect x="330" y="195" width="8" height="8" class="led white"/>
  <rect x="345" y="165" width="8" height="8" class="led white"/>
  <rect x="355" y="165" width="8" height="8" class="led white"/>
  <rect x="365" y="165" width="8" height="8" class="led white"/>
  <rect x="345" y="175" width="8" height="8" class="led white"/>
  <rect x="345" y="185" width="8" height="8" class="led white"/>
  <rect x="355" y="185" width="8" height="8" class="led white"/>
  <rect x="365" y="185" width="8" height="8" class="led white"/>
  <rect x="365" y="195" width="8" height="8" class="led white"/>
  <rect x="345" y="195" width="8" height="8" class="led white"/>
  <rect x="355" y="195" width="8" height="8" class="led white"/>
  <rect x="385" y="165" width="8" height="8" class="led white"/>
  <rect x="395" y="165" width="8" height="8" class="led white"/>
  <rect x="385" y="175" width="8" height="8" class="led white"/>
  <rect x="400" y="175" width="8" height="8" class="led white"/>
  <rect x="385" y="185" width="8" height="8" class="led white"/>
  <rect x="395" y="185" width="8" height="8" class="led white"/>
  <rect x="385" y="195" width="8" height="8" class="led white"/>
  
  <!-- Separator 2 -->
  <rect x="0" y="210" width="640" height="2" fill="#404040"/>
  
  <!-- 72°F | 45% | AQ 87 -->
  <rect x="30" y="230" width="8" height="8" class="led cyan"/>
  <rect x="40" y="230" width="8" height="8" class="led cyan"/>
  <rect x="50" y="230" width="8" height="8" class="led cyan"/>
  <rect x="50" y="240" width="8" height="8" class="led cyan"/>
  <rect x="40" y="250" width="8" height="8" class="led cyan"/>
  <rect x="30" y="260" width="8" height="8" class="led cyan"/>
  <rect x="30" y="270" width="8" height="8" class="led cyan"/>
  <rect x="70" y="230" width="8" height="8" class="led cyan"/>
  <rect x="80" y="230" width="8" height="8" class="led cyan"/>
  <rect x="90" y="230" width="8" height="8" class="led cyan"/>
  <rect x="90" y="240" width="8" height="8" class="led cyan"/>
  <rect x="80" y="250" width="8" height="8" class="led cyan"/>
  <rect x="70" y="260" width="8" height="8" class="led cyan"/>
  <rect x="70" y="270" width="8" height="8" class="led cyan"/>
  <rect x="80" y="270" width="8" height="8" class="led cyan"/>
  <rect x="90" y="270" width="8" height="8" class="led cyan"/>
  <rect x="105" y="230" width="6" height="6" class="led cyan"/>
  <rect x="120" y="230" width="8" height="8" class="led cyan"/>
  <rect x="130" y="230" width="8" height="8" class="led cyan"/>
  <rect x="140" y="230" width="8" height="8" class="led cyan"/>
  <rect x="120" y="240" width="8" height="8" class="led cyan"/>
  <rect x="120" y="250" width="8" height="8" class="led cyan"/>
  <rect x="130" y="250" width="8" height="8" class="led cyan"/>
  <rect x="120" y="260" width="8" height="8" class="led cyan"/>
  <rect x="120" y="270" width="8" height="8" class="led cyan"/>
  <rect x="200" y="230" width="8" height="8" class="led cyan"/>
  <rect x="220" y="230" width="8" height="8" class="led cyan"/>
  <rect x="200" y="240" width="8" height="8" class="led cyan"/>
  <rect x="220" y="240" width="8" height="8" class="led cyan"/>
  <rect x="200" y="250" width="8" height="8" class="led cyan"/>
  <rect x="210" y="250" width="8" height="8" class="led cyan"/>
  <rect x="220" y="250" width="8" height="8" class="led cyan"/>
  <rect x="220" y="260" width="8" height="8" class="led cyan"/>
  <rect x="220" y="270" width="8" height="8" class="led cyan"/>
  <rect x="240" y="230" width="8" height="8" class="led cyan"/>
  <rect x="250" y="230" width="8" height="8" class="led cyan"/>
  <rect x="260" y="230" width="8" height="8" class="led cyan"/>
  <rect x="240" y="240" width="8" height="8" class="led cyan"/>
  <rect x="240" y="250" width="8" height="8" class="led cyan"/>
  <rect x="250" y="250" width="8" height="8" class="led cyan"/>
  <rect x="260" y="250" width="8" height="8" class="led cyan"/>
  <rect x="260" y="260" width="8" height="8" class="led cyan"/>
  <rect x="240" y="270" width="8" height="8" class="led cyan"/>
  <rect x="250" y="270" width="8" height="8" class="led cyan"/>
  <rect x="280" y="230" width="8" height="8" class="led cyan"/>
  <rect x="300" y="230" width="8" height="8" class="led cyan"/>
  <rect x="295" y="240" width="8" height="8" class="led cyan"/>
  <rect x="290" y="250" width="8" height="8" class="led cyan"/>
  <rect x="285" y="260" width="8" height="8" class="led cyan"/>
  <rect x="280" y="270" width="8" height="8" class="led cyan"/>
  <rect x="300" y="270" width="8" height="8" class="led cyan"/>
  <rect x="390" y="230" width="8" height="8" class="led cyan"/>
  <rect x="400" y="230" width="8" height="8" class="led cyan"/>
  <rect x="385" y="240" width="8" height="8" class="led cyan"/>
  <rect x="405" y="240" width="8" height="8" class="led cyan"/>
  <rect x="385" y="250" width="8" height="8" class="led cyan"/>
  <rect x="390" y="250" width="8" height="8" class="led cyan"/>
  <rect x="400" y="250" width="8" height="8" class="led cyan"/>
  <rect x="405" y="250" width="8" height="8" class="led cyan"/>
  <rect x="385" y="260" width="8" height="8" class="led cyan"/>
  <rect x="405" y="260" width="8" height="8" class="led cyan"/>
  <rect x="430" y="230" width="8" height="8" class="led cyan"/>
  <rect x="440" y="230" width="8" height="8" class="led cyan"/>
  <rect x="425" y="240" width="8" height="8" class="led cyan"/>
  <rect x="445" y="240" width="8" height="8" class="led cyan"/>
  <rect x="425" y="250" width="8" height="8" class="led cyan"/>
  <rect x="445" y="250" width="8" height="8" class="led cyan"/>
  <rect x="430" y="260" width="8" height="8" class="led cyan"/>
  <rect x="440" y="260" width="8" height="8" class="led cyan"/>
  <rect x="450" y="260" width="8" height="8" class="led cyan"/>
  <rect x="480" y="230" width="8" height="8" class="led cyan"/>
  <rect x="490" y="230" width="8" height="8" class="led cyan"/>
  <rect x="475" y="240" width="8" height="8" class="led cyan"/>
  <rect x="495" y="240" width="8" height="8" class="led cyan"/>
  <rect x="480" y="250" width="8" height="8" class="led cyan"/>
  <rect x="490" y="250" width="8" height="8" class="led cyan"/>
  <rect x="475" y="260" width="8" height="8" class="led cyan"/>
  <rect x="495" y="260" width="8" height="8" class="led cyan"/>
  <rect x="480" y="270" width="8" height="8" class="led cyan"/>
  <rect x="490" y="270" width="8" height="8" class="led cyan"/>
  <rect x="515" y="230" width="8" height="8" class="led cyan"/>
  <rect x="525" y="230" width="8" height="8" class="led cyan"/>
  <rect x="535" y="230" width="8" height="8" class="led cyan"/>
  <rect x="535" y="240" width="8" height="8" class="led cyan"/>
  <rect x="530" y="250" width="8" height="8" class="led cyan"/>
  <rect x="525" y="260" width="8" height="8" class="led cyan"/>
  <rect x="525" y="270" width="8" height="8" class="led cyan"/>
  
  <!-- Panel frame -->
  <rect x="0" y="0" width="640" height="320" fill="none" stroke="#333" stroke-width="4"/>
</svg>
