<svg xmlns="http://www.w3.org/2000/svg" viewBox="0 0 640 320" width="640" height="320">
  <defs>
    <style>
      .led { rx: 3; ry: 3; }
      .green { fill: #00FF00; }
      .cyan { fill: #00FFFF; }
      .white { fill: #FFFFFF; }
    </style>
  </defs>
  
  <!-- Black background -->
  <rect width="640" height="320" fill="#0a0a0a"/>
  
  <!-- Grid pattern -->
  <g opacity="0.08">
    <pattern id="grid" width="10" height="10" patternUnits="userSpaceOnUse">
      <rect width="8" height="8" fill="#222" rx="2" ry="2"/>
    </pattern>
    <rect width="640" height="320" fill="url(#grid)"/>
  </g>
  
  <!-- Status Circle - Green (10 pixels diameter centered) -->
  <rect x="290" y="10" width="8" height="8" class="led green"/>
  <rect x="300" y="10" width="8" height="8" class="led green"/>
  <rect x="310" y="10" width="8" height="8" class="led green"/>
  <rect x="320" y="10" width="8" height="8" class="led green"/>
  <rect x="330" y="10" width="8" height="8" class="led green"/>
  <rect x="340" y="10" width="8" height="8" class="led green"/>
  <rect x="280" y="20" width="8" height="8" class="led green"/>
  <rect x="290" y="20" width="8" height="8" class="led green"/>
  <rect x="300" y="20" width="8" height="8" class="led green"/>
  <rect x="310" y="20" width="8" height="8" class="led green"/>
  <rect x="320" y="20" width="8" height="8" class="led green"/>
  <rect x="330" y="20" width="8" height="8" class="led green"/>
  <rect x="340" y="20" width="8" height="8" class="led green"/>
  <rect x="350" y="20" width="8" height="8" class="led green"/>
  <rect x="270" y="30" width="8" height="8" class="led green"/>
  <rect x="280" y="30" width="8" height="8" class="led green"/>
  <rect x="290" y="30" width="8" height="8" class="led green"/>
  <rect x="300" y="30" width="8" height="8" class="led green"/>
  <rect x="310" y="30" width="8" height="8" class="led green"/>
  <rect x="320" y="30" width="8" height="8" class="led green"/>
  <rect x="330" y="30" width="8" height="8" class="led green"/>
  <rect x="340" y="30" width="8" height="8" class="led green"/>
  <rect x="350" y="30" width="8" height="8" class="led green"/>
  <rect x="360" y="30" width="8" height="8" class="led green"/>
  <rect x="270" y="40" width="8" height="8" class="led green"/>
  <rect x="280" y="40" width="8" height="8" class="led green"/>
  <rect x="290" y="40" width="8" height="8" class="led green"/>
  <rect x="300" y="40" width="8" height="8" class="led green"/>
  <rect x="310" y="40" width="8" height="8" class="led green"/>
  <rect x="320" y="40" width="8" height="8" class="led green"/>
  <rect x="330" y="40" width="8" height="8" class="led green"/>
  <rect x="340" y="40" width="8" height="8" class="led green"/>
  <rect x="350" y="40" width="8" height="8" class="led green"/>
  <rect x="360" y="40" width="8" height="8" class="led green"/>
  <rect x="270" y="50" width="8" height="8" class="led green"/>
  <rect x="280" y="50" width="8" height="8" class="led green"/>
  <rect x="290" y="50" width="8" height="8" class="led green"/>
  <rect x="300" y="50" width="8" height="8" class="led green"/>
  <rect x="310" y="50" width="8" height="8" class="led green"/>
  <rect x="320" y="50" width="8" height="8" class="led green"/>
  <rect x="330" y="50" width="8" height="8" class="led green"/>
  <rect x="340" y="50" width="8" height="8" class="led green"/>
  <rect x="350" y="50" width="8" height="8" class="led green"/>
  <rect x="360" y="50" width="8" height="8" class="led green"/>
  <rect x="270" y="60" width="8" height="8" class="led green"/>
  <rect x="280" y="60" width="8" height="8" class="led green"/>
  <rect x="290" y="60" width="8" height="8" class="led green"/>
  <rect x="300" y="60" width="8" height="8" class="led green"/>
  <rect x="310" y="60" width="8" height="8" class="led green"/>
  <rect x="320" y="60" width="8" height="8" class="led green"/>
  <rect x="330" y="60" width="8" height="8" class="led green"/>
  <rect x="340" y="60" width="8" height="8" class="led green"/>
  <rect x="350" y="60" width="8" height="8" class="led green"/>
  <rect x="360" y="60" width="8" height="8" class="led green"/>
  <rect x="280" y="70" width="8" height="8" class="led green"/>
  <rect x="290" y="70" width="8" height="8" class="led green"/>
  <rect x="300" y="70" width="8" height="8" class="led green"/>
  <rect x="310" y="70" width="8" height="8" class="led green"/>
  <rect x="320" y="70" width="8" height="8" class="led green"/>
  <rect x="330" y="70" width="8" height="8" class="led green"/>
  <rect x="340" y="70" width="8" height="8" class="led green"/>
  <rect x="350" y="70" width="8" height="8" class="led green"/>
  <rect x="290" y="80" width="8" height="8" class="led green"/>
  <rect x="300" y="80" width="8" height="8" class="led green"/>
  <rect x="310" y="80" width="8" height="8" class="led green"/>
  <rect x="320" y="80" width="8" height="8" class="led green"/>
  <rect x="330" y="80" width="8" height="8" class="led green"/>
  <rect x="340" y="80" width="8" height="8" class="led green"/>
  
  <!-- "AVAILABLE" text centered -->
  <!-- A -->
  <rect x="120" y="100" width="8" height="8" class="led green"/>
  <rect x="130" y="100" width="8" height="8" class="led green"/>
  <rect x="110" y="110" width="8" height="8" class="led green"/>
  <rect x="140" y="110" width="8" height="8" class="led green"/>
  <rect x="110" y="120" width="8" height="8" class="led green"/>
  <rect x="120" y="120" width="8" height="8" class="led green"/>
  <rect x="130" y="120" width="8" height="8" class="led green"/>
  <rect x="140" y="120" width="8" height="8" class="led green"/>
  <rect x="110" y="130" width="8" height="8" class="led green"/>
  <rect x="140" y="130" width="8" height="8" class="led green"/>
  <!-- V -->
  <rect x="160" y="100" width="8" height="8" class="led green"/>
  <rect x="190" y="100" width="8" height="8" class="led green"/>
  <rect x="165" y="110" width="8" height="8" class="led green"/>
  <rect x="185" y="110" width="8" height="8" class="led green"/>
  <rect x="170" y="120" width="8" height="8" class="led green"/>
  <rect x="180" y="120" width="8" height="8" class="led green"/>
  <rect x="175" y="130" width="8" height="8" class="led green"/>
  <!-- A -->
  <rect x="220" y="100" width="8" height="8" class="led green"/>
  <rect x="230" y="100" width="8" height="8" class="led green"/>
  <rect x="210" y="110" width="8" height="8" class="led green"/>
  <rect x="240" y="110" width="8" height="8" class="led green"/>
  <rect x="210" y="120" width="8" height="8" class="led green"/>
  <rect x="220" y="120" width="8" height="8" class="led green"/>
  <rect x="230" y="120" width="8" height="8" class="led green"/>
  <rect x="240" y="120" width="8" height="8" class="led green"/>
  <rect x="210" y="130" width="8" height="8" class="led green"/>
  <rect x="240" y="130" width="8" height="8" class="led green"/>
  <!-- I -->
  <rect x="260" y="100" width="8" height="8" class="led green"/>
  <rect x="270" y="100" width="8" height="8" class="led green"/>
  <rect x="280" y="100" width="8" height="8" class="led green"/>
  <rect x="270" y="110" width="8" height="8" class="led green"/>
  <rect x="270" y="120" width="8" height="8" class="led green"/>
  <rect x="260" y="130" width="8" height="8" class="led green"/>
  <rect x="270" y="130" width="8" height="8" class="led green"/>
  <rect x="280" y="130" width="8" height="8" class="led green"/>
  <!-- L -->
  <rect x="300" y="100" width="8" height="8" class="led green"/>
  <rect x="300" y="110" width="8" height="8" class="led green"/>
  <rect x="300" y="120" width="8" height="8" class="led green"/>
  <rect x="300" y="130" width="8" height="8" class="led green"/>
  <rect x="310" y="130" width="8" height="8" class="led green"/>
  <rect x="320" y="130" width="8" height="8" class="led green"/>
  <!-- A -->
  <rect x="350" y="100" width="8" height="8" class="led green"/>
  <rect x="360" y="100" width="8" height="8" class="led green"/>
  <rect x="340" y="110" width="8" height="8" class="led green"/>
  <rect x="370" y="110" width="8" height="8" class="led green"/>
  <rect x="340" y="120" width="8" height="8" class="led green"/>
  <rect x="350" y="120" width="8" height="8" class="led green"/>
  <rect x="360" y="120" width="8" height="8" class="led green"/>
  <rect x="370" y="120" width="8" height="8" class="led green"/>
  <rect x="340" y="130" width="8" height="8" class="led green"/>
  <rect x="370" y="130" width="8" height="8" class="led green"/>
  <!-- B -->
  <rect x="390" y="100" width="8" height="8" class="led green"/>
  <rect x="400" y="100" width="8" height="8" class="led green"/>
  <rect x="390" y="110" width="8" height="8" class="led green"/>
  <rect x="410" y="110" width="8" height="8" class="led green"/>
  <rect x="390" y="120" width="8" height="8" class="led green"/>
  <rect x="400" y="120" width="8" height="8" class="led green"/>
  <rect x="390" y="130" width="8" height="8" class="led green"/>
  <rect x="400" y="130" width="8" height="8" class="led green"/>
  <!-- L -->
  <rect x="430" y="100" width="8" height="8" class="led green"/>
  <rect x="430" y="110" width="8" height="8" class="led green"/>
  <rect x="430" y="120" width="8" height="8" class="led green"/>
  <rect x="430" y="130" width="8" height="8" class="led green"/>
  <rect x="440" y="130" width="8" height="8" class="led green"/>
  <rect x="450" y="130" width="8" height="8" class="led green"/>
  <!-- E -->
  <rect x="470" y="100" width="8" height="8" class="led green"/>
  <rect x="480" y="100" width="8" height="8" class="led green"/>
  <rect x="490" y="100" width="8" height="8" class="led green"/>
  <rect x="500" y="100" width="8" height="8" class="led green"/>
  <rect x="470" y="110" width="8" height="8" class="led green"/>
  <rect x="470" y="120" width="8" height="8" class="led green"/>
  <rect x="480" y="120" width="8" height="8" class="led green"/>
  <rect x="470" y="130" width="8" height="8" class="led green"/>
  <rect x="480" y="130" width="8" height="8" class="led green"/>
  <rect x="490" y="130" width="8" height="8" class="led green"/>
  <rect x="500" y="130" width="8" height="8" class="led green"/>
  
  <!-- Separator -->
  <rect x="0" y="150" width="640" height="2" fill="#404040"/>
  
  <!-- Date "JAN 16" left side -->
  <!-- J -->
  <rect x="20" y="165" width="8" height="8" class="led white"/>
  <rect x="30" y="165" width="8" height="8" class="led white"/>
  <rect x="40" y="165" width="8" height="8" class="led white"/>
  <rect x="30" y="175" width="8" height="8" class="led white"/>
  <rect x="30" y="185" width="8" height="8" class="led white"/>
  <rect x="20" y="185" width="8" height="8" class="led white"/>
  <!-- A -->
  <rect x="60" y="165" width="8" height="8" class="led white"/>
  <rect x="70" y="165" width="8" height="8" class="led white"/>
  <rect x="55" y="175" width="8" height="8" class="led white"/>
  <rect x="75" y="175" width="8" height="8" class="led white"/>
  <rect x="55" y="185" width="8" height="8" class="led white"/>
  <rect x="60" y="185" width="8" height="8" class="led white"/>
  <rect x="70" y="185" width="8" height="8" class="led white"/>
  <rect x="75" y="185" width="8" height="8" class="led white"/>
  <!-- N -->
  <rect x="90" y="165" width="8" height="8" class="led white"/>
  <rect x="110" y="165" width="8" height="8" class="led white"/>
  <rect x="90" y="175" width="8" height="8" class="led white"/>
  <rect x="100" y="175" width="8" height="8" class="led white"/>
  <rect x="110" y="175" width="8" height="8" class="led white"/>
  <rect x="90" y="185" width="8" height="8" class="led white"/>
  <rect x="110" y="185" width="8" height="8" class="led white"/>
  <!-- 1 -->
  <rect x="140" y="165" width="8" height="8" class="led white"/>
  <rect x="140" y="175" width="8" height="8" class="led white"/>
  <rect x="140" y="185" width="8" height="8" class="led white"/>
  <!-- 6 -->
  <rect x="160" y="165" width="8" height="8" class="led white"/>
  <rect x="170" y="165" width="8" height="8" class="led white"/>
  <rect x="155" y="175" width="8" height="8" class="led white"/>
  <rect x="160" y="175" width="8" height="8" class="led white"/>
  <rect x="170" y="175" width="8" height="8" class="led white"/>
  <rect x="155" y="185" width="8" height="8" class="led white"/>
  <rect x="175" y="185" width="8" height="8" class="led white"/>
  <rect x="160" y="195" width="8" height="8" class="led white"/>
  <rect x="170" y="195" width="8" height="8" class="led white"/>
  
  <!-- Time "2:45" centered -->
  <!-- 2 -->
  <rect x="260" y="165" width="8" height="8" class="led white"/>
  <rect x="270" y="165" width="8" height="8" class="led white"/>
  <rect x="280" y="165" width="8" height="8" class="led white"/>
  <rect x="280" y="175" width="8" height="8" class="led white"/>
  <rect x="270" y="185" width="8" height="8" class="led white"/>
  <rect x="260" y="195" width="8" height="8" class="led white"/>
  <rect x="270" y="195" width="8" height="8" class="led white"/>
  <rect x="280" y="195" width="8" height="8" class="led white"/>
  <!-- : -->
  <rect x="295" y="170" width="8" height="8" class="led white"/>
  <rect x="295" y="185" width="8" height="8" class="led white"/>
  <!-- 4 -->
  <rect x="310" y="165" width="8" height="8" class="led white"/>
  <rect x="330" y="165" width="8" height="8" class="led white"/>
  <rect x="310" y="175" width="8" height="8" class="led white"/>
  <rect x="330" y="175" width="8" height="8" class="led white"/>
  <rect x="310" y="185" width="8" height="8" class="led white"/>
  <rect x="320" y="185" width="8" height="8" class="led white"/>
  <rect x="330" y="185" width="8" height="8" class="led white"/>
  <rect x="330" y="195" width="8" height="8" class="led white"/>
  <!-- 5 -->
  <rect x="345" y="165" width="8" height="8" class="led white"/>
  <rect x="355" y="165" width="8" height="8" class="led white"/>
  <rect x="365" y="165" width="8" height="8" class="led white"/>
  <rect x="345" y="175" width="8" height="8" class="led white"/>
  <rect x="345" y="185" width="8" height="8" class="led white"/>
  <rect x="355" y="185" width="8" height="8" class="led white"/>
  <rect x="365" y="185" width="8" height="8" class="led white"/>
  <rect x="365" y="195" width="8" height="8" class="led white"/>
  <rect x="345" y="195" width="8" height="8" class="led white"/>
  <rect x="355" y="195" width="8" height="8" class="led white"/>
  
  <!-- PM right of time -->
  <rect x="385" y="165" width="8" height="8" class="led white"/>
  <rect x="395" y="165" width="8" height="8" class="led white"/>
  <rect x="385" y="175" width="8" height="8" class="led white"/>
  <rect x="400" y="175" width="8" height="8" class="led white"/>
  <rect x="385" y="185" width="8" height="8" class="led white"/>
  <rect x="395" y="185" width="8" height="8" class="led white"/>
  <rect x="385" y="195" width="8" height="8" class="led white"/>
  
  <!-- Separator 2 -->
  <rect x="0" y="210" width="640" height="2" fill="#404040"/>
  
  <!-- Bottom row: 72°F | 45% | AQ 87 -->
  <!-- 72°F -->
  <rect x="30" y="230" width="8" height="8" class="led cyan"/>
  <rect x="40" y="230" width="8" height="8" class="led cyan"/>
  <rect x="50" y="230" width="8" height="8" class="led cyan"/>
  <rect x="50" y="240" width="8" height="8" class="led cyan"/>
  <rect x="40" y="250" width="8" height="8" class="led cyan"/>
  <rect x="30" y="260" width="8" height="8" class="led cyan"/>
  <rect x="30" y="270" width="8" height="8" class="led cyan"/>
  <!-- 2 -->
  <rect x="70" y="230" width="8" height="8" class="led cyan"/>
  <rect x="80" y="230" width="8" height="8" class="led cyan"/>
  <rect x="90" y="230" width="8" height="8" class="led cyan"/>
  <rect x="90" y="240" width="8" height="8" class="led cyan"/>
  <rect x="80" y="250" width="8" height="8" class="led cyan"/>
  <rect x="70" y="260" width="8" height="8" class="led cyan"/>
  <rect x="70" y="270" width="8" height="8" class="led cyan"/>
  <rect x="80" y="270" width="8" height="8" class="led cyan"/>
  <rect x="90" y="270" width="8" height="8" class="led cyan"/>
  <!-- ° -->
  <rect x="105" y="230" width="6" height="6" class="led cyan"/>
  <!-- F -->
  <rect x="120" y="230" width="8" height="8" class="led cyan"/>
  <rect x="130" y="230" width="8" height="8" class="led cyan"/>
  <rect x="140" y="230" width="8" height="8" class="led cyan"/>
  <rect x="120" y="240" width="8" height="8" class="led cyan"/>
  <rect x="120" y="250" width="8" height="8" class="led cyan"/>
  <rect x="130" y="250" width="8" height="8" class="led cyan"/>
  <rect x="120" y="260" width="8" height="8" class="led cyan"/>
  <rect x="120" y="270" width="8" height="8" class="led cyan"/>
  
  <!-- 45% humidity -->
  <!-- 4 -->
  <rect x="200" y="230" width="8" height="8" class="led cyan"/>
  <rect x="220" y="230" width="8" height="8" class="led cyan"/>
  <rect x="200" y="240" width="8" height="8" class="led cyan"/>
  <rect x="220" y="240" width="8" height="8" class="led cyan"/>
  <rect x="200" y="250" width="8" height="8" class="led cyan"/>
  <rect x="210" y="250" width="8" height="8" class="led cyan"/>
  <rect x="220" y="250" width="8" height="8" class="led cyan"/>
  <rect x="220" y="260" width="8" height="8" class="led cyan"/>
  <rect x="220" y="270" width="8" height="8" class="led cyan"/>
  <!-- 5 -->
  <rect x="240" y="230" width="8" height="8" class="led cyan"/>
  <rect x="250" y="230" width="8" height="8" class="led cyan"/>
  <rect x="260" y="230" width="8" height="8" class="led cyan"/>
  <rect x="240" y="240" width="8" height="8" class="led cyan"/>
  <rect x="240" y="250" width="8" height="8" class="led cyan"/>
  <rect x="250" y="250" width="8" height="8" class="led cyan"/>
  <rect x="260" y="250" width="8" height="8" class="led cyan"/>
  <rect x="260" y="260" width="8" height="8" class="led cyan"/>
  <rect x="240" y="270" width="8" height="8" class="led cyan"/>
  <rect x="250" y="270" width="8" height="8" class="led cyan"/>
  <!-- % -->
  <rect x="280" y="230" width="8" height="8" class="led cyan"/>
  <rect x="300" y="230" width="8" height="8" class="led cyan"/>
  <rect x="295" y="240" width="8" height="8" class="led cyan"/>
  <rect x="290" y="250" width="8" height="8" class="led cyan"/>
  <rect x="285" y="260" width="8" height="8" class="led cyan"/>
  <rect x="280" y="270" width="8" height="8" class="led cyan"/>
  <rect x="300" y="270" width="8" height="8" class="led cyan"/>
  
  <!-- AQ 87 -->
  <!-- A -->
  <rect x="390" y="230" width="8" height="8" class="led cyan"/>
  <rect x="400" y="230" width="8" height="8" class="led cyan"/>
  <rect x="385" y="240" width="8" height="8" class="led cyan"/>
  <rect x="405" y="240" width="8" height="8" class="led cyan"/>
  <rect x="385" y="250" width="8" height="8" class="led cyan"/>
  <rect x="390" y="250" width="8" height="8" class="led cyan"/>
  <rect x="400" y="250" width="8" height="8" class="led cyan"/>
  <rect x="405" y="250" width="8" height="8" class="led cyan"/>
  <rect x="385" y="260" width="8" height="8" class="led cyan"/>
  <rect x="405" y="260" width="8" height="8" class="led cyan"/>
  <!-- Q -->
  <rect x="430" y="230" width="8" height="8" class="led cyan"/>
  <rect x="440" y="230" width="8" height="8" class="led cyan"/>
  <rect x="425" y="240" width="8" height="8" class="led cyan"/>
  <rect x="445" y="240" width="8" height="8" class="led cyan"/>
  <rect x="425" y="250" width="8" height="8" class="led cyan"/>
  <rect x="445" y="250" width="8" height="8" class="led cyan"/>
  <rect x="430" y="260" width="8" height="8" class="led cyan"/>
  <rect x="440" y="260" width="8" height="8" class="led cyan"/>
  <rect x="450" y="260" width="8" height="8" class="led cyan"/>
  <!-- 8 -->
  <rect x="480" y="230" width="8" height="8" class="led cyan"/>
  <rect x="490" y="230" width="8" height="8" class="led cyan"/>
  <rect x="475" y="240" width="8" height="8" class="led cyan"/>
  <rect x="495" y="240" width="8" height="8" class="led cyan"/>
  <rect x="480" y="250" width="8" height="8" class="led cyan"/>
  <rect x="490" y="250" width="8" height="8" class="led cyan"/>
  <rect x="475" y="260" width="8" height="8" class="led cyan"/>
  <rect x="495" y="260" width="8" height="8" class="led cyan"/>
  <rect x="480" y="270" width="8" height="8" class="led cyan"/>
  <rect x="490" y="270" width="8" height="8" class="led cyan"/>
  <!-- 7 -->
  <rect x="515" y="230" width="8" height="8" class="led cyan"/>
  <rect x="525" y="230" width="8" height="8" class="led cyan"/>
  <rect x="535" y="230" width="8" height="8" class="led cyan"/>
  <rect x="535" y="240" width="8" height="8" class="led cyan"/>
  <rect x="530" y="250" width="8" height="8" class="led cyan"/>
  <rect x="525" y="260" width="8" height="8" class="led cyan"/>
  <rect x="525" y="270" width="8" height="8" class="led cyan"/>
  
  <!-- Panel frame -->
  <rect x="0" y="0" width="640" height="320" fill="none" stroke="#333" stroke-width="4"/>
</svg>
