<svg xmlns="http://www.w3.org/2000/svg" viewBox="0 0 640 320" width="640" height="320">
  <defs>
    <style>
      .led { rx: 3; ry: 3; }
      .yellow { fill: #FFFF00; }
      .cyan { fill: #00FFFF; }
      .white { fill: #FFFFFF; }
      .green { fill: #00FF00; }
    </style>
  </defs>
  
  <!-- Black background (LED matrix panel) -->
  <rect width="640" height="320" fill="#0a0a0a"/>
  
  <!-- Grid pattern showing LED structure -->
  <g opacity="0.08">
    <pattern id="grid" width="10" height="10" patternUnits="userSpaceOnUse">
      <rect width="8" height="8" fill="#222" rx="2" ry="2"/>
    </pattern>
    <rect width="640" height="320" fill="url(#grid)"/>
  </g>
  
  <!-- Status Circle centered - Yellow -->
  <rect x="290" y="10" width="8" height="8" class="led yellow"/>
  <rect x="300" y="10" width="8" height="8" class="led yellow"/>
  <rect x="310" y="10" width="8" height="8" class="led yellow"/>
  <rect x="320" y="10" width="8" height="8" class="led yellow"/>
  <rect x="330" y="10" width="8" height="8" class="led yellow"/>
  <rect x="340" y="10" width="8" height="8" class="led yellow"/>
  
  <rect x="280" y="20" width="8" height="8" class="led yellow"/>
  <rect x="290" y="20" width="8" height="8" class="led yellow"/>
  <rect x="300" y="20" width="8" height="8" class="led yellow"/>
  <rect x="310" y="20" width="8" height="8" class="led yellow"/>
  <rect x="320" y="20" width="8" height="8" class="led yellow"/>
  <rect x="330" y="20" width="8" height="8" class="led yellow"/>
  <rect x="340" y="20" width="8" height="8" class="led yellow"/>
  <rect x="350" y="20" width="8" height="8" class="led yellow"/>
  
  <rect x="270" y="30" width="8" height="8" class="led yellow"/>
  <rect x="280" y="30" width="8" height="8" class="led yellow"/>
  <rect x="290" y="30" width="8" height="8" class="led yellow"/>
  <rect x="300" y="30" width="8" height="8" class="led yellow"/>
  <rect x="310" y="30" width="8" height="8" class="led yellow"/>
  <rect x="320" y="30" width="8" height="8" class="led yellow"/>
  <rect x="330" y="30" width="8" height="8" class="led yellow"/>
  <rect x="340" y="30" width="8" height="8" class="led yellow"/>
  <rect x="350" y="30" width="8" height="8" class="led yellow"/>
  <rect x="360" y="30" width="8" height="8" class="led yellow"/>
  
  <rect x="270" y="40" width="8" height="8" class="led yellow"/>
  <rect x="280" y="40" width="8" height="8" class="led yellow"/>
  <rect x="290" y="40" width="8" height="8" class="led yellow"/>
  <rect x="300" y="40" width="8" height="8" class="led yellow"/>
  <rect x="310" y="40" width="8" height="8" class="led yellow"/>
  <rect x="320" y="40" width="8" height="8" class="led yellow"/>
  <rect x="330" y="40" width="8" height="8" class="led yellow"/>
  <rect x="340" y="40" width="8" height="8" class="led yellow"/>
  <rect x="350" y="40" width="8" height="8" class="led yellow"/>
  <rect x="360" y="40" width="8" height="8" class="led yellow"/>
  
  <rect x="270" y="50" width="8" height="8" class="led yellow"/>
  <rect x="280" y="50" width="8" height="8" class="led yellow"/>
  <rect x="290" y="50" width="8" height="8" class="led yellow"/>
  <rect x="300" y="50" width="8" height="8" class="led yellow"/>
  <rect x="310" y="50" width="8" height="8" class="led yellow"/>
  <rect x="320" y="50" width="8" height="8" class="led yellow"/>
  <rect x="330" y="50" width="8" height="8" class="led yellow"/>
  <rect x="340" y="50" width="8" height="8" class="led yellow"/>
  <rect x="350" y="50" width="8" height="8" class="led yellow"/>
  <rect x="360" y="50" width="8" height="8" class="led yellow"/>
  
  <rect x="270" y="60" width="8" height="8" class="led yellow"/>
  <rect x="280" y="60" width="8" height="8" class="led yellow"/>
  <rect x="290" y="60" width="8" height="8" class="led yellow"/>
  <rect x="300" y="60" width="8" height="8" class="led yellow"/>
  <rect x="310" y="60" width="8" height="8" class="led yellow"/>
  <rect x="320" y="60" width="8" height="8" class="led yellow"/>
  <rect x="330" y="60" width="8" height="8" class="led yellow"/>
  <rect x="340" y="60" width="8" height="8" class="led yellow"/>
  <rect x="350" y="60" width="8" height="8" class="led yellow"/>
  <rect x="360" y="60" width="8" height="8" class="led yellow"/>
  
  <rect x="270" y="70" width="8" height="8" class="led yellow"/>
  <rect x="280" y="70" width="8" height="8" class="led yellow"/>
  <rect x="290" y="70" width="8" height="8" class="led yellow"/>
  <rect x="300" y="70" width="8" height="8" class="led yellow"/>
  <rect x="310" y="70" width="8" height="8" class="led yellow"/>
  <rect x="320" y="70" width="8" height="8" class="led yellow"/>
  <rect x="330" y="70" width="8" height="8" class="led yellow"/>
  <rect x="340" y="70" width="8" height="8" class="led yellow"/>
  <rect x="350" y="70" width="8" height="8" class="led yellow"/>
  <rect x="360" y="70" width="8" height="8" class="led yellow"/>
  
  <rect x="280" y="80" width="8" height="8" class="led yellow"/>
  <rect x="290" y="80" width="8" height="8" class="led yellow"/>
  <rect x="300" y="80" width="8" height="8" class="led yellow"/>
  <rect x="310" y="80" width="8" height="8" class="led yellow"/>
  <rect x="320" y="80" width="8" height="8" class="led yellow"/>
  <rect x="330" y="80" width="8" height="8" class="led yellow"/>
  <rect x="340" y="80" width="8" height="8" class="led yellow"/>
  <rect x="350" y="80" width="8" height="8" class="led yellow"/>
  
  <rect x="290" y="90" width="8" height="8" class="led yellow"/>
  <rect x="300" y="90" width="8" height="8" class="led yellow"/>
  <rect x="310" y="90" width="8" height="8" class="led yellow"/>
  <rect x="320" y="90" width="8" height="8" class="led yellow"/>
  <rect x="330" y="90" width="8" height="8" class="led yellow"/>
  <rect x="340" y="90" width="8" height="8" class="led yellow"/>
  
  <!-- "AWAY" text centered - Yellow -->
  <!-- A -->
  <rect x="230" y="110" width="8" height="8" class="led yellow"/>
  <rect x="240" y="110" width="8" height="8" class="led yellow"/>
  <rect x="250" y="110" width="8" height="8" class="led yellow"/>
  <rect x="220" y="120" width="8" height="8" class="led yellow"/>
  <rect x="260" y="120" width="8" height="8" class="led yellow"/>
  <rect x="220" y="130" width="8" height="8" class="led yellow"/>
  <rect x="230" y="130" width="8" height="8" class="led yellow"/>
  <rect x="240" y="130" width="8" height="8" class="led yellow"/>
  <rect x="250" y="130" width="8" height="8" class="led yellow"/>
  <rect x="260" y="130" width="8" height="8" class="led yellow"/>
  <rect x="220" y="140" width="8" height="8" class="led yellow"/>
  <rect x="260" y="140" width="8" height="8" class="led yellow"/>
  <rect x="220" y="150" width="8" height="8" class="led yellow"/>
  <rect x="260" y="150" width="8" height="8" class="led yellow"/>
  
  <!-- W -->
  <rect x="280" y="110" width="8" height="8" class="led yellow"/>
  <rect x="320" y="110" width="8" height="8" class="led yellow"/>
  <rect x="280" y="120" width="8" height="8" class="led yellow"/>
  <rect x="320" y="120" width="8" height="8" class="led yellow"/>
  <rect x="280" y="130" width="8" height="8" class="led yellow"/>
  <rect x="300" y="130" width="8" height="8" class="led yellow"/>
  <rect x="320" y="130" width="8" height="8" class="led yellow"/>
  <rect x="280" y="140" width="8" height="8" class="led yellow"/>
  <rect x="290" y="140" width="8" height="8" class="led yellow"/>
  <rect x="310" y="140" width="8" height="8" class="led yellow"/>
  <rect x="320" y="140" width="8" height="8" class="led yellow"/>
  <rect x="290" y="150" width="8" height="8" class="led yellow"/>
  <rect x="310" y="150" width="8" height="8" class="led yellow"/>
  
  <!-- A -->
  <rect x="350" y="110" width="8" height="8" class="led yellow"/>
  <rect x="360" y="110" width="8" height="8" class="led yellow"/>
  <rect x="370" y="110" width="8" height="8" class="led yellow"/>
  <rect x="340" y="120" width="8" height="8" class="led yellow"/>
  <rect x="380" y="120" width="8" height="8" class="led yellow"/>
  <rect x="340" y="130" width="8" height="8" class="led yellow"/>
  <rect x="350" y="130" width="8" height="8" class="led yellow"/>
  <rect x="360" y="130" width="8" height="8" class="led yellow"/>
  <rect x="370" y="130" width="8" height="8" class="led yellow"/>
  <rect x="380" y="130" width="8" height="8" class="led yellow"/>
  <rect x="340" y="140" width="8" height="8" class="led yellow"/>
  <rect x="380" y="140" width="8" height="8" class="led yellow"/>
  <rect x="340" y="150" width="8" height="8" class="led yellow"/>
  <rect x="380" y="150" width="8" height="8" class="led yellow"/>
  
  <!-- Y -->
  <rect x="400" y="110" width="8" height="8" class="led yellow"/>
  <rect x="440" y="110" width="8" height="8" class="led yellow"/>
  <rect x="410" y="120" width="8" height="8" class="led yellow"/>
  <rect x="430" y="120" width="8" height="8" class="led yellow"/>
  <rect x="420" y="130" width="8" height="8" class="led yellow"/>
  <rect x="420" y="140" width="8" height="8" class="led yellow"/>
  <rect x="420" y="150" width="8" height="8" class="led yellow"/>
  
  <!-- Separator line -->
  <rect x="0" y="170" width="640" height="2" fill="#404040"/>
  
  <!-- Time "2:45 PM" centered -->
  <rect x="220" y="180" width="8" height="8" class="led white"/>
  <rect x="230" y="180" width="8" height="8" class="led white"/>
  <rect x="240" y="180" width="8" height="8" class="led white"/>
  <rect x="240" y="190" width="8" height="8" class="led white"/>
  <rect x="230" y="200" width="8" height="8" class="led white"/>
  <rect x="220" y="210" width="8" height="8" class="led white"/>
  <rect x="220" y="220" width="8" height="8" class="led white"/>
  <rect x="230" y="220" width="8" height="8" class="led white"/>
  <rect x="240" y="220" width="8" height="8" class="led white"/>
  <rect x="260" y="190" width="8" height="8" class="led white"/>
  <rect x="260" y="210" width="8" height="8" class="led white"/>
  <rect x="280" y="180" width="8" height="8" class="led white"/>
  <rect x="300" y="180" width="8" height="8" class="led white"/>
  <rect x="280" y="190" width="8" height="8" class="led white"/>
  <rect x="300" y="190" width="8" height="8" class="led white"/>
  <rect x="280" y="200" width="8" height="8" class="led white"/>
  <rect x="290" y="200" width="8" height="8" class="led white"/>
  <rect x="300" y="200" width="8" height="8" class="led white"/>
  <rect x="300" y="210" width="8" height="8" class="led white"/>
  <rect x="300" y="220" width="8" height="8" class="led white"/>
  <rect x="320" y="180" width="8" height="8" class="led white"/>
  <rect x="330" y="180" width="8" height="8" class="led white"/>
  <rect x="340" y="180" width="8" height="8" class="led white"/>
  <rect x="320" y="190" width="8" height="8" class="led white"/>
  <rect x="320" y="200" width="8" height="8" class="led white"/>
  <rect x="330" y="200" width="8" height="8" class="led white"/>
  <rect x="340" y="200" width="8" height="8" class="led white"/>
  <rect x="340" y="210" width="8" height="8" class="led white"/>
  <rect x="320" y="220" width="8" height="8" class="led white"/>
  <rect x="330" y="220" width="8" height="8" class="led white"/>
  <rect x="370" y="180" width="8" height="8" class="led white"/>
  <rect x="380" y="180" width="8" height="8" class="led white"/>
  <rect x="370" y="190" width="8" height="8" class="led white"/>
  <rect x="390" y="190" width="8" height="8" class="led white"/>
  <rect x="370" y="200" width="8" height="8" class="led white"/>
  <rect x="380" y="200" width="8" height="8" class="led white"/>
  <rect x="370" y="210" width="8" height="8" class="led white"/>
  <rect x="370" y="220" width="8" height="8" class="led white"/>
  <rect x="410" y="180" width="8" height="8" class="led white"/>
  <rect x="440" y="180" width="8" height="8" class="led white"/>
  <rect x="410" y="190" width="8" height="8" class="led white"/>
  <rect x="420" y="190" width="8" height="8" class="led white"/>
  <rect x="430" y="190" width="8" height="8" class="led white"/>
  <rect x="440" y="190" width="8" height="8" class="led white"/>
  <rect x="410" y="200" width="8" height="8" class="led white"/>
  <rect x="425" y="200" width="8" height="8" class="led white"/>
  <rect x="440" y="200" width="8" height="8" class="led white"/>
  <rect x="410" y="210" width="8" height="8" class="led white"/>
  <rect x="440" y="210" width="8" height="8" class="led white"/>
  <rect x="410" y="220" width="8" height="8" class="led white"/>
  <rect x="440" y="220" width="8" height="8" class="led white"/>
  
  <!-- "72°F" left -->
  <rect x="40" y="250" width="8" height="8" class="led cyan"/>
  <rect x="50" y="250" width="8" height="8" class="led cyan"/>
  <rect x="60" y="250" width="8" height="8" class="led cyan"/>
  <rect x="70" y="250" width="8" height="8" class="led cyan"/>
  <rect x="70" y="260" width="8" height="8" class="led cyan"/>
  <rect x="60" y="270" width="8" height="8" class="led cyan"/>
  <rect x="50" y="280" width="8" height="8" class="led cyan"/>
  <rect x="50" y="290" width="8" height="8" class="led cyan"/>
  <rect x="90" y="250" width="8" height="8" class="led cyan"/>
  <rect x="100" y="250" width="8" height="8" class="led cyan"/>
  <rect x="110" y="250" width="8" height="8" class="led cyan"/>
  <rect x="110" y="260" width="8" height="8" class="led cyan"/>
  <rect x="100" y="270" width="8" height="8" class="led cyan"/>
  <rect x="90" y="280" width="8" height="8" class="led cyan"/>
  <rect x="90" y="290" width="8" height="8" class="led cyan"/>
  <rect x="100" y="290" width="8" height="8" class="led cyan"/>
  <rect x="110" y="290" width="8" height="8" class="led cyan"/>
  <rect x="130" y="250" width="6" height="6" class="led cyan"/>
  <rect x="150" y="250" width="8" height="8" class="led cyan"/>
  <rect x="160" y="250" width="8" height="8" class="led cyan"/>
  <rect x="170" y="250" width="8" height="8" class="led cyan"/>
  <rect x="150" y="260" width="8" height="8" class="led cyan"/>
  <rect x="150" y="270" width="8" height="8" class="led cyan"/>
  <rect x="160" y="270" width="8" height="8" class="led cyan"/>
  <rect x="150" y="280" width="8" height="8" class="led cyan"/>
  <rect x="150" y="290" width="8" height="8" class="led cyan"/>
  
  <!-- "Good" right -->
  <rect x="470" y="250" width="8" height="8" class="led green"/>
  <rect x="480" y="250" width="8" height="8" class="led green"/>
  <rect x="490" y="250" width="8" height="8" class="led green"/>
  <rect x="460" y="260" width="8" height="8" class="led green"/>
  <rect x="460" y="270" width="8" height="8" class="led green"/>
  <rect x="480" y="270" width="8" height="8" class="led green"/>
  <rect x="490" y="270" width="8" height="8" class="led green"/>
  <rect x="460" y="280" width="8" height="8" class="led green"/>
  <rect x="500" y="280" width="8" height="8" class="led green"/>
  <rect x="470" y="290" width="8" height="8" class="led green"/>
  <rect x="480" y="290" width="8" height="8" class="led green"/>
  <rect x="490" y="290" width="8" height="8" class="led green"/>
  <rect x="520" y="260" width="8" height="8" class="led green"/>
  <rect x="530" y="260" width="8" height="8" class="led green"/>
  <rect x="510" y="270" width="8" height="8" class="led green"/>
  <rect x="540" y="270" width="8" height="8" class="led green"/>
  <rect x="510" y="280" width="8" height="8" class="led green"/>
  <rect x="540" y="280" width="8" height="8" class="led green"/>
  <rect x="520" y="290" width="8" height="8" class="led green"/>
  <rect x="530" y="290" width="8" height="8" class="led green"/>
  <rect x="560" y="260" width="8" height="8" class="led green"/>
  <rect x="570" y="260" width="8" height="8" class="led green"/>
  <rect x="550" y="270" width="8" height="8" class="led green"/>
  <rect x="580" y="270" width="8" height="8" class="led green"/>
  <rect x="550" y="280" width="8" height="8" class="led green"/>
  <rect x="580" y="280" width="8" height="8" class="led green"/>
  <rect x="560" y="290" width="8" height="8" class="led green"/>
  <rect x="570" y="290" width="8" height="8" class="led green"/>
  <rect x="610" y="250" width="8" height="8" class="led green"/>
  <rect x="600" y="260" width="8" height="8" class="led green"/>
  <rect x="610" y="260" width="8" height="8" class="led green"/>
  <rect x="590" y="270" width="8" height="8" class="led green"/>
  <rect x="610" y="270" width="8" height="8" class="led green"/>
  <rect x="590" y="280" width="8" height="8" class="led green"/>
  <rect x="610" y="280" width="8" height="8" class="led green"/>
  <rect x="600" y="290" width="8" height="8" class="led green"/>
  <rect x="610" y="290" width="8" height="8" class="led green"/>
  
  <!-- Panel frame -->
  <rect x="0" y="0" width="640" height="320" fill="none" stroke="#333" stroke-width="4"/>
</svg>
