<svg xmlns="http://www.w3.org/2000/svg" viewBox="0 0 640 320" width="640" height="320">
  <defs>
    <style>
      .led { rx: 3; ry: 3; }
      .green { fill: #00FF00; }
      .cyan { fill: #00FFFF; }
    </style>
  </defs>

  <!-- Black background -->
  <rect width="640" height="320" fill="#0a0a0a"/>

  <!-- Grid pattern -->
  <g opacity="0.08">
    <pattern id="grid" width="10" height="10" patternUnits="userSpaceOnUse">
      <rect width="8" height="8" fill="#222" rx="2" ry="2"/>
    </pattern>
    <rect width="640" height="320" fill="url(#grid)"/>
  </g>

  <!-- Status Circle centered - Green -->
  <rect x="280" y="10" width="8" height="8" class="led green"/>
  <rect x="290" y="10" width="8" height="8" class="led green"/>
  <rect x="300" y="10" width="8" height="8" class="led green"/>
  <rect x="310" y="10" width="8" height="8" class="led green"/>
  <rect x="320" y="10" width="8" height="8" class="led green"/>
  <rect x="330" y="10" width="8" height="8" class="led green"/>
  <rect x="340" y="10" width="8" height="8" class="led green"/>
  <rect x="350" y="10" width="8" height="8" class="led green"/>

  <rect x="270" y="20" width="8" height="8" class="led green"/>
  <rect x="280" y="20" width="8" height="8" class="led green"/>
  <rect x="290" y="20" width="8" height="8" class="led green"/>
  <rect x="300" y="20" width="8" height="8" class="led green"/>
  <rect x="310" y="20" width="8" height="8" class="led green"/>
  <rect x="320" y="20" width="8" height="8" class="led green"/>
  <rect x="330" y="20" width="8" height="8" class="led green"/>
  <rect x="340" y="20" width="8" height="8" class="led green"/>
  <rect x="350" y="20" width="8" height="8" class="led green"/>
  <rect x="360" y="20" width="8" height="8" class="led green"/>

  <rect x="260" y="30" width="8" height="8" class="led green"/>
  <rect x="270" y="30" width="8" height="8" class="led green"/>
  <rect x="280" y="30" width="8" height="8" class="led green"/>
  <rect x="290" y="30" width="8" height="8" class="led green"/>
  <rect x="300" y="30" width="8" height="8" class="led green"/>
  <rect x="310" y="30" width="8" height="8" class="led green"/>
  <rect x="320" y="30" width="8" height="8" class="led green"/>
  <rect x="330" y="30" width="8" height="8" class="led green"/>
  <rect x="340" y="30" width="8" height="8" class="led green"/>
  <rect x="350" y="30" width="8" height="8" class="led green"/>
  <rect x="360" y="30" width="8" height="8" class="led green"/>
  <rect x="370" y="30" width="8" height="8" class="led green"/>

  <rect x="260" y="40" width="8" height="8" class="led green"/>
  <rect x="270" y="40" width="8" height="8" class="led green"/>
  <rect x="280" y="40" width="8" height="8" class="led green"/>
  <rect x="290" y="40" width="8" height="8" class="led green"/>
  <rect x="300" y="40" width="8" height="8" class="led green"/>
  <rect x="310" y="40" width="8" height="8" class="led green"/>
  <rect x="320" y="40" width="8" height="8" class="led green"/>
  <rect x="330" y="40" width="8" height="8" class="led green"/>
  <rect x="340" y="40" width="8" height="8" class="led green"/>
  <rect x="350" y="40" width="8" height="8" class="led green"/>
  <rect x="360" y="40" width="8" height="8" class="led green"/>
  <rect x="370" y="40" width="8" height="8" class="led green"/>

  <rect x="260" y="50" width="8" height="8" class="led green"/>
  <rect x="270" y="50" width="8" height="8" class="led green"/>
  <rect x="280" y="50" width="8" height="8" class="led green"/>
  <rect x="290" y="50" width="8" height="8" class="led green"/>
  <rect x="300" y="50" width="8" height="8" class="led green"/>
  <rect x="310" y="50" width="8" height="8" class="led green"/>
  <rect x="320" y="50" width="8" height="8" class="led green"/>
  <rect x="330" y="50" width="8" height="8" class="led green"/>
  <rect x="340" y="50" width="8" height="8" class="led green"/>
  <rect x="350" y="50" width="8" height="8" class="led green"/>
  <rect x="360" y="50" width="8" height="8" class="led green"/>
  <rect x="370" y="50" width="8" height="8" class="led green"/>

  <rect x="270" y="60" width="8" height="8" class="led green"/>
  <rect x="280" y="60" width="8" height="8" class="led green"/>
  <rect x="290" y="60" width="8" height="8" class="led green"/>
  <rect x="300" y="60" width="8" height="8" class="led green"/>
  <rect x="310" y="60" width="8" height="8" class="led green"/>
  <rect x="320" y="60" width="8" height="8" class="led green"/>
  <rect x="330" y="60" width="8" height="8" class="led green"/>
  <rect x="340" y="60" width="8" height="8" class="led green"/>
  <rect x="350" y="60" width="8" height="8" class="led green"/>
  <rect x="360" y="60" width="8" height="8" class="led green"/>

  <rect x="280" y="70" width="8" height="8" class="led green"/>
  <rect x="290" y="70" width="8" height="8" class="led green"/>
  <rect x="300" y="70" width="8" height="8" class="led green"/>
  <rect x="310" y="70" width="8" height="8" class="led green"/>
  <rect x="320" y="70" width="8" height="8" class="led green"/>
  <rect x="330" y="70" width="8" height="8" class="led green"/>
  <rect x="340" y="70" width="8" height="8" class="led green"/>
  <rect x="350" y="70" width="8" height="8" class="led green"/>

  <!-- "AVAILABLE" text centered in green -->
  <!-- A -->
  <rect x="115" y="90" width="8" height="8" class="led green"/>
  <rect x="125" y="90" width="8" height="8" class="led green"/>
  <rect x="105" y="100" width="8" height="8" class="led green"/>
  <rect x="135" y="100" width="8" height="8" class="led green"/>
  <rect x="105" y="110" width="8" height="8" class="led green"/>
  <rect x="115" y="110" width="8" height="8" class="led green"/>
  <rect x="125" y="110" width="8" height="8" class="led green"/>
  <rect x="135" y="110" width="8" height="8" class="led green"/>
  <rect x="105" y="120" width="8" height="8" class="led green"/>
  <rect x="135" y="120" width="8" height="8" class="led green"/>
  <!-- V -->
  <rect x="155" y="90" width="8" height="8" class="led green"/>
  <rect x="185" y="90" width="8" height="8" class="led green"/>
  <rect x="160" y="100" width="8" height="8" class="led green"/>
  <rect x="180" y="100" width="8" height="8" class="led green"/>
  <rect x="165" y="110" width="8" height="8" class="led green"/>
  <rect x="175" y="110" width="8" height="8" class="led green"/>
  <rect x="170" y="120" width="8" height="8" class="led green"/>
  <!-- A -->
  <rect x="205" y="90" width="8" height="8" class="led green"/>
  <rect x="215" y="90" width="8" height="8" class="led green"/>
  <rect x="195" y="100" width="8" height="8" class="led green"/>
  <rect x="225" y="100" width="8" height="8" class="led green"/>
  <rect x="195" y="110" width="8" height="8" class="led green"/>
  <rect x="205" y="110" width="8" height="8" class="led green"/>
  <rect x="215" y="110" width="8" height="8" class="led green"/>
  <rect x="225" y="110" width="8" height="8" class="led green"/>
  <rect x="195" y="120" width="8" height="8" class="led green"/>
  <rect x="225" y="120" width="8" height="8" class="led green"/>
  <!-- I -->
  <rect x="245" y="90" width="8" height="8" class="led green"/>
  <rect x="255" y="90" width="8" height="8" class="led green"/>
  <rect x="265" y="90" width="8" height="8" class="led green"/>
  <rect x="255" y="100" width="8" height="8" class="led green"/>
  <rect x="255" y="110" width="8" height="8" class="led green"/>
  <rect x="245" y="120" width="8" height="8" class="led green"/>
  <rect x="255" y="120" width="8" height="8" class="led green"/>
  <rect x="265" y="120" width="8" height="8" class="led green"/>
  <!-- L -->
  <rect x="285" y="90" width="8" height="8" class="led green"/>
  <rect x="285" y="100" width="8" height="8" class="led green"/>
  <rect x="285" y="110" width="8" height="8" class="led green"/>
  <rect x="285" y="120" width="8" height="8" class="led green"/>
  <rect x="295" y="120" width="8" height="8" class="led green"/>
  <rect x="305" y="120" width="8" height="8" class="led green"/>
  <!-- A -->
  <rect x="335" y="90" width="8" height="8" class="led green"/>
  <rect x="345" y="90" width="8" height="8" class="led green"/>
  <rect x="325" y="100" width="8" height="8" class="led green"/>
  <rect x="355" y="100" width="8" height="8" class="led green"/>
  <rect x="325" y="110" width="8" height="8" class="led green"/>
  <rect x="335" y="110" width="8" height="8" class="led green"/>
  <rect x="345" y="110" width="8" height="8" class="led green"/>
  <rect x="355" y="110" width="8" height="8" class="led green"/>
  <rect x="325" y="120" width="8" height="8" class="led green"/>
  <rect x="355" y="120" width="8" height="8" class="led green"/>
  <!-- B -->
  <rect x="375" y="90" width="8" height="8" class="led green"/>
  <rect x="385" y="90" width="8" height="8" class="led green"/>
  <rect x="375" y="100" width="8" height="8" class="led green"/>
  <rect x="395" y="100" width="8" height="8" class="led green"/>
  <rect x="375" y="110" width="8" height="8" class="led green"/>
  <rect x="385" y="110" width="8" height="8" class="led green"/>
  <rect x="375" y="120" width="8" height="8" class="led green"/>
  <rect x="385" y="120" width="8" height="8" class="led green"/>
  <!-- L -->
  <rect x="415" y="90" width="8" height="8" class="led green"/>
  <rect x="415" y="100" width="8" height="8" class="led green"/>
  <rect x="415" y="110" width="8" height="8" class="led green"/>
  <rect x="415" y="120" width="8" height="8" class="led green"/>
  <rect x="425" y="120" width="8" height="8" class="led green"/>
  <rect x="435" y="120" width="8" height="8" class="led green"/>
  <!-- E -->
  <rect x="455" y="90" width="8" height="8" class="led green"/>
  <rect x="465" y="90" width="8" height="8" class="led green"/>
  <rect x="475" y="90" width="8" height="8" class="led green"/>
  <rect x="485" y="90" width="8" height="8" class="led green"/>
  <rect x="455" y="100" width="8" height="8" class="led green"/>
  <rect x="455" y="110" width="8" height="8" class="led green"/>
  <rect x="465" y="110" width="8" height="8" class="led green"/>
  <rect x="455" y="120" width="8" height="8" class="led green"/>
  <rect x="465" y="120" width="8" height="8" class="led green"/>
  <rect x="475" y="120" width="8" height="8" class="led green"/>
  <rect x="485" y="120" width="8" height="8" class="led green"/>

  <!-- Separator -->
  <rect x="0" y="135" width="640" height="2" fill="#404040"/>

  <!-- Date and Time centered - LARGER, in GREEN to match status -->
  <!-- JAN 16  2:45 PM -->
  <!-- J -->
  <rect x="100" y="150" width="8" height="8" class="led green"/>
  <rect x="110" y="150" width="8" height="8" class="led green"/>
  <rect x="120" y="150" width="8" height="8" class="led green"/>
  <rect x="110" y="160" width="8" height="8" class="led green"/>
  <rect x="110" y="170" width="8" height="8" class="led green"/>
  <rect x="110" y="180" width="8" height="8" class="led green"/>
  <rect x="100" y="180" width="8" height="8" class="led green"/>
  <rect x="100" y="190" width="8" height="8" class="led green"/>
  <!-- A -->
  <rect x="145" y="150" width="8" height="8" class="led green"/>
  <rect x="155" y="150" width="8" height="8" class="led green"/>
  <rect x="135" y="160" width="8" height="8" class="led green"/>
  <rect x="165" y="160" width="8" height="8" class="led green"/>
  <rect x="135" y="170" width="8" height="8" class="led green"/>
  <rect x="145" y="170" width="8" height="8" class="led green"/>
  <rect x="155" y="170" width="8" height="8" class="led green"/>
  <rect x="165" y="170" width="8" height="8" class="led green"/>
  <rect x="135" y="180" width="8" height="8" class="led green"/>
  <rect x="165" y="180" width="8" height="8" class="led green"/>
  <rect x="135" y="190" width="8" height="8" class="led green"/>
  <rect x="165" y="190" width="8" height="8" class="led green"/>
  <!-- N -->
  <rect x="185" y="150" width="8" height="8" class="led green"/>
  <rect x="215" y="150" width="8" height="8" class="led green"/>
  <rect x="185" y="160" width="8" height="8" class="led green"/>
  <rect x="195" y="160" width="8" height="8" class="led green"/>
  <rect x="215" y="160" width="8" height="8" class="led green"/>
  <rect x="185" y="170" width="8" height="8" class="led green"/>
  <rect x="200" y="170" width="8" height="8" class="led green"/>
  <rect x="215" y="170" width="8" height="8" class="led green"/>
  <rect x="185" y="180" width="8" height="8" class="led green"/>
  <rect x="205" y="180" width="8" height="8" class="led green"/>
  <rect x="215" y="180" width="8" height="8" class="led green"/>
  <rect x="185" y="190" width="8" height="8" class="led green"/>
  <rect x="215" y="190" width="8" height="8" class="led green"/>
  <!-- 1 -->
  <rect x="250" y="150" width="8" height="8" class="led green"/>
  <rect x="250" y="160" width="8" height="8" class="led green"/>
  <rect x="250" y="170" width="8" height="8" class="led green"/>
  <rect x="250" y="180" width="8" height="8" class="led green"/>
  <rect x="250" y="190" width="8" height="8" class="led green"/>
  <!-- 6 -->
  <rect x="275" y="150" width="8" height="8" class="led green"/>
  <rect x="285" y="150" width="8" height="8" class="led green"/>
  <rect x="295" y="150" width="8" height="8" class="led green"/>
  <rect x="270" y="160" width="8" height="8" class="led green"/>
  <rect x="270" y="170" width="8" height="8" class="led green"/>
  <rect x="280" y="170" width="8" height="8" class="led green"/>
  <rect x="290" y="170" width="8" height="8" class="led green"/>
  <rect x="270" y="180" width="8" height="8" class="led green"/>
  <rect x="300" y="180" width="8" height="8" class="led green"/>
  <rect x="275" y="190" width="8" height="8" class="led green"/>
  <rect x="285" y="190" width="8" height="8" class="led green"/>
  <rect x="295" y="190" width="8" height="8" class="led green"/>
  <!-- 2 -->
  <rect x="345" y="150" width="8" height="8" class="led green"/>
  <rect x="355" y="150" width="8" height="8" class="led green"/>
  <rect x="365" y="150" width="8" height="8" class="led green"/>
  <rect x="370" y="160" width="8" height="8" class="led green"/>
  <rect x="355" y="170" width="8" height="8" class="led green"/>
  <rect x="345" y="180" width="8" height="8" class="led green"/>
  <rect x="345" y="190" width="8" height="8" class="led green"/>
  <rect x="355" y="190" width="8" height="8" class="led green"/>
  <rect x="365" y="190" width="8" height="8" class="led green"/>
  <!-- : -->
  <rect x="385" y="160" width="8" height="8" class="led green"/>
  <rect x="385" y="180" width="8" height="8" class="led green"/>
  <!-- 4 -->
  <rect x="405" y="150" width="8" height="8" class="led green"/>
  <rect x="425" y="150" width="8" height="8" class="led green"/>
  <rect x="405" y="160" width="8" height="8" class="led green"/>
  <rect x="425" y="160" width="8" height="8" class="led green"/>
  <rect x="405" y="170" width="8" height="8" class="led green"/>
  <rect x="415" y="170" width="8" height="8" class="led green"/>
  <rect x="425" y="170" width="8" height="8" class="led green"/>
  <rect x="425" y="180" width="8" height="8" class="led green"/>
  <rect x="425" y="190" width="8" height="8" class="led green"/>
  <!-- 5 -->
  <rect x="445" y="150" width="8" height="8" class="led green"/>
  <rect x="455" y="150" width="8" height="8" class="led green"/>
  <rect x="465" y="150" width="8" height="8" class="led green"/>
  <rect x="445" y="160" width="8" height="8" class="led green"/>
  <rect x="445" y="170" width="8" height="8" class="led green"/>
  <rect x="455" y="170" width="8" height="8" class="led green"/>
  <rect x="465" y="170" width="8" height="8" class="led green"/>
  <rect x="470" y="180" width="8" height="8" class="led green"/>
  <rect x="445" y="190" width="8" height="8" class="led green"/>
  <rect x="455" y="190" width="8" height="8" class="led green"/>
  <rect x="465" y="190" width="8" height="8" class="led green"/>
  <!-- P -->
  <rect x="490" y="150" width="8" height="8" class="led green"/>
  <rect x="500" y="150" width="8" height="8" class="led green"/>
  <rect x="490" y="160" width="8" height="8" class="led green"/>
  <rect x="510" y="160" width="8" height="8" class="led green"/>
  <rect x="490" y="170" width="8" height="8" class="led green"/>
  <rect x="500" y="170" width="8" height="8" class="led green"/>
  <rect x="490" y="180" width="8" height="8" class="led green"/>
  <rect x="490" y="190" width="8" height="8" class="led green"/>
  <!-- M -->
  <rect x="530" y="150" width="8" height="8" class="led green"/>
  <rect x="560" y="150" width="8" height="8" class="led green"/>
  <rect x="530" y="160" width="8" height="8" class="led green"/>
  <rect x="540" y="160" width="8" height="8" class="led green"/>
  <rect x="550" y="160" width="8" height="8" class="led green"/>
  <rect x="560" y="160" width="8" height="8" class="led green"/>
  <rect x="530" y="170" width="8" height="8" class="led green"/>
  <rect x="545" y="170" width="8" height="8" class="led green"/>
  <rect x="560" y="170" width="8" height="8" class="led green"/>
  <rect x="530" y="180" width="8" height="8" class="led green"/>
  <rect x="560" y="180" width="8" height="8" class="led green"/>
  <rect x="530" y="190" width="8" height="8" class="led green"/>
  <rect x="560" y="190" width="8" height="8" class="led green"/>

  <!-- Separator 2 -->
  <rect x="0" y="210" width="640" height="2" fill="#404040"/>

  <!-- Bottom: 72°F centered-left | 45% centered | AQ 87 centered-right - CYAN -->
  <!-- 72°F -->
  <rect x="60" y="230" width="8" height="8" class="led cyan"/>
  <rect x="70" y="230" width="8" height="8" class="led cyan"/>
  <rect x="80" y="230" width="8" height="8" class="led cyan"/>
  <rect x="80" y="240" width="8" height="8" class="led cyan"/>
  <rect x="70" y="250" width="8" height="8" class="led cyan"/>
  <rect x="60" y="260" width="8" height="8" class="led cyan"/>
  <rect x="60" y="270" width="8" height="8" class="led cyan"/>
  <rect x="100" y="230" width="8" height="8" class="led cyan"/>
  <rect x="110" y="230" width="8" height="8" class="led cyan"/>
  <rect x="120" y="230" width="8" height="8" class="led cyan"/>
  <rect x="120" y="240" width="8" height="8" class="led cyan"/>
  <rect x="110" y="250" width="8" height="8" class="led cyan"/>
  <rect x="100" y="260" width="8" height="8" class="led cyan"/>
  <rect x="100" y="270" width="8" height="8" class="led cyan"/>
  <rect x="110" y="270" width="8" height="8" class="led cyan"/>
  <rect x="120" y="270" width="8" height="8" class="led cyan"/>
  <rect x="135" y="230" width="6" height="6" class="led cyan"/>
  <rect x="150" y="230" width="8" height="8" class="led cyan"/>
  <rect x="160" y="230" width="8" height="8" class="led cyan"/>
  <rect x="170" y="230" width="8" height="8" class="led cyan"/>
  <rect x="150" y="240" width="8" height="8" class="led cyan"/>
  <rect x="150" y="250" width="8" height="8" class="led cyan"/>
  <rect x="160" y="250" width="8" height="8" class="led cyan"/>
  <rect x="150" y="260" width="8" height="8" class="led cyan"/>
  <rect x="150" y="270" width="8" height="8" class="led cyan"/>

  <!-- 45% centered -->
  <rect x="255" y="230" width="8" height="8" class="led cyan"/>
  <rect x="275" y="230" width="8" height="8" class="led cyan"/>
  <rect x="255" y="240" width="8" height="8" class="led cyan"/>
  <rect x="275" y="240" width="8" height="8" class="led cyan"/>
  <rect x="255" y="250" width="8" height="8" class="led cyan"/>
  <rect x="265" y="250" width="8" height="8" class="led cyan"/>
  <rect x="275" y="250" width="8" height="8" class="led cyan"/>
  <rect x="275" y="260" width="8" height="8" class="led cyan"/>
  <rect x="275" y="270" width="8" height="8" class="led cyan"/>
  <rect x="295" y="230" width="8" height="8" class="led cyan"/>
  <rect x="305" y="230" width="8" height="8" class="led cyan"/>
  <rect x="315" y="230" width="8" height="8" class="led cyan"/>
  <rect x="295" y="240" width="8" height="8" class="led cyan"/>
  <rect x="295" y="250" width="8" height="8" class="led cyan"/>
  <rect x="305" y="250" width="8" height="8" class="led cyan"/>
  <rect x="315" y="250" width="8" height="8" class="led cyan"/>
  <rect x="320" y="260" width="8" height="8" class="led cyan"/>
  <rect x="295" y="270" width="8" height="8" class="led cyan"/>
  <rect x="305" y="270" width="8" height="8" class="led cyan"/>
  <rect x="315" y="270" width="8" height="8" class="led cyan"/>
  <rect x="340" y="230" width="8" height="8" class="led cyan"/>
  <rect x="360" y="230" width="8" height="8" class="led cyan"/>
  <rect x="355" y="240" width="8" height="8" class="led cyan"/>
  <rect x="350" y="250" width="8" height="8" class="led cyan"/>
  <rect x="345" y="260" width="8" height="8" class="led cyan"/>
  <rect x="340" y="270" width="8" height="8" class="led cyan"/>
  <rect x="360" y="270" width="8" height="8" class="led cyan"/>

  <!-- AQ 87 right -->
  <rect x="440" y="230" width="8" height="8" class="led cyan"/>
  <rect x="450" y="230" width="8" height="8" class="led cyan"/>
  <rect x="435" y="240" width="8" height="8" class="led cyan"/>
  <rect x="455" y="240" width="8" height="8" class="led cyan"/>
  <rect x="435" y="250" width="8" height="8" class="led cyan"/>
  <rect x="440" y="250" width="8" height="8" class="led cyan"/>
  <rect x="450" y="250" width="8" height="8" class="led cyan"/>
  <rect x="455" y="250" width="8" height="8" class="led cyan"/>
  <rect x="435" y="260" width="8" height="8" class="led cyan"/>
  <rect x="455" y="260" width="8" height="8" class="led cyan"/>
  <rect x="480" y="230" width="8" height="8" class="led cyan"/>
  <rect x="490" y="230" width="8" height="8" class="led cyan"/>
  <rect x="475" y="240" width="8" height="8" class="led cyan"/>
  <rect x="495" y="240" width="8" height="8" class="led cyan"/>
  <rect x="475" y="250" width="8" height="8" class="led cyan"/>
  <rect x="495" y="250" width="8" height="8" class="led cyan"/>
  <rect x="480" y="260" width="8" height="8" class="led cyan"/>
  <rect x="490" y="260" width="8" height="8" class="led cyan"/>
  <rect x="500" y="260" width="8" height="8" class="led cyan"/>
  <rect x="525" y="230" width="8" height="8" class="led cyan"/>
  <rect x="535" y="230" width="8" height="8" class="led cyan"/>
  <rect x="520" y="240" width="8" height="8" class="led cyan"/>
  <rect x="540" y="240" width="8" height="8" class="led cyan"/>
  <rect x="525" y="250" width="8" height="8" class="led cyan"/>
  <rect x="535" y="250" width="8" height="8" class="led cyan"/>
  <rect x="520" y="260" width="8" height="8" class="led cyan"/>
  <rect x="540" y="260" width="8" height="8" class="led cyan"/>
  <rect x="525" y="270" width="8" height="8" class="led cyan"/>
  <rect x="535" y="270" width="8" height="8" class="led cyan"/>
  <rect x="560" y="230" width="8" height="8" class="led cyan"/>
  <rect x="570" y="230" width="8" height="8" class="led cyan"/>
  <rect x="580" y="230" width="8" height="8" class="led cyan"/>
  <rect x="580" y="240" width="8" height="8" class="led cyan"/>
  <rect x="575" y="250" width="8" height="8" class="led cyan"/>
  <rect x="570" y="260" width="8" height="8" class="led cyan"/>
  <rect x="570" y="270" width="8" height="8" class="led cyan"/>

  <!-- Panel frame -->
  <rect x="0" y="0" width="640" height="320" fill="none" stroke="#333" stroke-width="4"/>
</svg>
