<svg xmlns="http://www.w3.org/2000/svg" viewBox="0 0 640 320" width="640" height="320">
  <defs>
    <style>
      .led { rx: 3; ry: 3; }
      .red { fill: #FF0000; }
      .green { fill: #00FF00; }
      .cyan { fill: #00FFFF; }
      .white { fill: #FFFFFF; }
    </style>
  </defs>
  
  <!-- Black background (LED matrix panel) -->
  <rect width="640" height="320" fill="#0a0a0a"/>
  
  <!-- Grid pattern showing LED structure -->
  <g opacity="0.08">
    <pattern id="grid" width="10" height="10" patternUnits="userSpaceOnUse">
      <rect width="8" height="8" fill="#222" rx="2" ry="2"/>
    </pattern>
    <rect width="640" height="320" fill="url(#grid)"/>
  </g>
  
  <!-- Status Circle centered - Red (In Meeting) -->
  <rect x="290" y="10" width="8" height="8" class="led red"/>
  <rect x="300" y="10" width="8" height="8" class="led red"/>
  <rect x="310" y="10" width="8" height="8" class="led red"/>
  <rect x="320" y="10" width="8" height="8" class="led red"/>
  <rect x="330" y="10" width="8" height="8" class="led red"/>
  <rect x="340" y="10" width="8" height="8" class="led red"/>
  
  <rect x="280" y="20" width="8" height="8" class="led red"/>
  <rect x="290" y="20" width="8" height="8" class="led red"/>
  <rect x="300" y="20" width="8" height="8" class="led red"/>
  <rect x="310" y="20" width="8" height="8" class="led red"/>
  <rect x="320" y="20" width="8" height="8" class="led red"/>
  <rect x="330" y="20" width="8" height="8" class="led red"/>
  <rect x="340" y="20" width="8" height="8" class="led red"/>
  <rect x="350" y="20" width="8" height="8" class="led red"/>
  
  <rect x="270" y="30" width="8" height="8" class="led red"/>
  <rect x="280" y="30" width="8" height="8" class="led red"/>
  <rect x="290" y="30" width="8" height="8" class="led red"/>
  <rect x="300" y="30" width="8" height="8" class="led red"/>
  <rect x="310" y="30" width="8" height="8" class="led red"/>
  <rect x="320" y="30" width="8" height="8" class="led red"/>
  <rect x="330" y="30" width="8" height="8" class="led red"/>
  <rect x="340" y="30" width="8" height="8" class="led red"/>
  <rect x="350" y="30" width="8" height="8" class="led red"/>
  <rect x="360" y="30" width="8" height="8" class="led red"/>
  
  <rect x="270" y="40" width="8" height="8" class="led red"/>
  <rect x="280" y="40" width="8" height="8" class="led red"/>
  <rect x="290" y="40" width="8" height="8" class="led red"/>
  <rect x="300" y="40" width="8" height="8" class="led red"/>
  <rect x="310" y="40" width="8" height="8" class="led red"/>
  <rect x="320" y="40" width="8" height="8" class="led red"/>
  <rect x="330" y="40" width="8" height="8" class="led red"/>
  <rect x="340" y="40" width="8" height="8" class="led red"/>
  <rect x="350" y="40" width="8" height="8" class="led red"/>
  <rect x="360" y="40" width="8" height="8" class="led red"/>
  
  <rect x="270" y="50" width="8" height="8" class="led red"/>
  <rect x="280" y="50" width="8" height="8" class="led red"/>
  <rect x="290" y="50" width="8" height="8" class="led red"/>
  <rect x="300" y="50" width="8" height="8" class="led red"/>
  <rect x="310" y="50" width="8" height="8" class="led red"/>
  <rect x="320" y="50" width="8" height="8" class="led red"/>
  <rect x="330" y="50" width="8" height="8" class="led red"/>
  <rect x="340" y="50" width="8" height="8" class="led red"/>
  <rect x="350" y="50" width="8" height="8" class="led red"/>
  <rect x="360" y="50" width="8" height="8" class="led red"/>
  
  <rect x="270" y="60" width="8" height="8" class="led red"/>
  <rect x="280" y="60" width="8" height="8" class="led red"/>
  <rect x="290" y="60" width="8" height="8" class="led red"/>
  <rect x="300" y="60" width="8" height="8" class="led red"/>
  <rect x="310" y="60" width="8" height="8" class="led red"/>
  <rect x="320" y="60" width="8" height="8" class="led red"/>
  <rect x="330" y="60" width="8" height="8" class="led red"/>
  <rect x="340" y="60" width="8" height="8" class="led red"/>
  <rect x="350" y="60" width="8" height="8" class="led red"/>
  <rect x="360" y="60" width="8" height="8" class="led red"/>
  
  <rect x="270" y="70" width="8" height="8" class="led red"/>
  <rect x="280" y="70" width="8" height="8" class="led red"/>
  <rect x="290" y="70" width="8" height="8" class="led red"/>
  <rect x="300" y="70" width="8" height="8" class="led red"/>
  <rect x="310" y="70" width="8" height="8" class="led red"/>
  <rect x="320" y="70" width="8" height="8" class="led red"/>
  <rect x="330" y="70" width="8" height="8" class="led red"/>
  <rect x="340" y="70" width="8" height="8" class="led red"/>
  <rect x="350" y="70" width="8" height="8" class="led red"/>
  <rect x="360" y="70" width="8" height="8" class="led red"/>
  
  <rect x="280" y="80" width="8" height="8" class="led red"/>
  <rect x="290" y="80" width="8" height="8" class="led red"/>
  <rect x="300" y="80" width="8" height="8" class="led red"/>
  <rect x="310" y="80" width="8" height="8" class="led red"/>
  <rect x="320" y="80" width="8" height="8" class="led red"/>
  <rect x="330" y="80" width="8" height="8" class="led red"/>
  <rect x="340" y="80" width="8" height="8" class="led red"/>
  <rect x="350" y="80" width="8" height="8" class="led red"/>
  
  <rect x="290" y="90" width="8" height="8" class="led red"/>
  <rect x="300" y="90" width="8" height="8" class="led red"/>
  <rect x="310" y="90" width="8" height="8" class="led red"/>
  <rect x="320" y="90" width="8" height="8" class="led red"/>
  <rect x="330" y="90" width="8" height="8" class="led red"/>
  <rect x="340" y="90" width="8" height="8" class="led red"/>
  
  <!-- "IN MEETING" text centered - Red -->
  <!-- I -->
  <rect x="170" y="110" width="8" height="8" class="led red"/>
  <rect x="180" y="110" width="8" height="8" class="led red"/>
  <rect x="190" y="110" width="8" height="8" class="led red"/>
  <rect x="180" y="120" width="8" height="8" class="led red"/>
  <rect x="180" y="130" width="8" height="8" class="led red"/>
  <rect x="180" y="140" width="8" height="8" class="led red"/>
  <rect x="170" y="150" width="8" height="8" class="led red"/>
  <rect x="180" y="150" width="8" height="8" class="led red"/>
  <rect x="190" y="150" width="8" height="8" class="led red"/>
  
  <!-- N -->
  <rect x="210" y="110" width="8" height="8" class="led red"/>
  <rect x="250" y="110" width="8" height="8" class="led red"/>
  <rect x="210" y="120" width="8" height="8" class="led red"/>
  <rect x="220" y="120" width="8" height="8" class="led red"/>
  <rect x="250" y="120" width="8" height="8" class="led red"/>
  <rect x="210" y="130" width="8" height="8" class="led red"/>
  <rect x="230" y="130" width="8" height="8" class="led red"/>
  <rect x="250" y="130" width="8" height="8" class="led red"/>
  <rect x="210" y="140" width="8" height="8" class="led red"/>
  <rect x="240" y="140" width="8" height="8" class="led red"/>
  <rect x="250" y="140" width="8" height="8" class="led red"/>
  <rect x="210" y="150" width="8" height="8" class="led red"/>
  <rect x="250" y="150" width="8" height="8" class="led red"/>
  
  <!-- M -->
  <rect x="290" y="110" width="8" height="8" class="led red"/>
  <rect x="330" y="110" width="8" height="8" class="led red"/>
  <rect x="290" y="120" width="8" height="8" class="led red"/>
  <rect x="300" y="120" width="8" height="8" class="led red"/>
  <rect x="320" y="120" width="8" height="8" class="led red"/>
  <rect x="330" y="120" width="8" height="8" class="led red"/>
  <rect x="290" y="130" width="8" height="8" class="led red"/>
  <rect x="310" y="130" width="8" height="8" class="led red"/>
  <rect x="330" y="130" width="8" height="8" class="led red"/>
  <rect x="290" y="140" width="8" height="8" class="led red"/>
  <rect x="330" y="140" width="8" height="8" class="led red"/>
  <rect x="290" y="150" width="8" height="8" class="led red"/>
  <rect x="330" y="150" width="8" height="8" class="led red"/>
  
  <!-- T -->
  <rect x="350" y="110" width="8" height="8" class="led red"/>
  <rect x="360" y="110" width="8" height="8" class="led red"/>
  <rect x="370" y="110" width="8" height="8" class="led red"/>
  <rect x="380" y="110" width="8" height="8" class="led red"/>
  <rect x="390" y="110" width="8" height="8" class="led red"/>
  <rect x="370" y="120" width="8" height="8" class="led red"/>
  <rect x="370" y="130" width="8" height="8" class="led red"/>
  <rect x="370" y="140" width="8" height="8" class="led red"/>
  <rect x="370" y="150" width="8" height="8" class="led red"/>
  
  <!-- G -->
  <rect x="420" y="110" width="8" height="8" class="led red"/>
  <rect x="430" y="110" width="8" height="8" class="led red"/>
  <rect x="440" y="110" width="8" height="8" class="led red"/>
  <rect x="410" y="120" width="8" height="8" class="led red"/>
  <rect x="410" y="130" width="8" height="8" class="led red"/>
  <rect x="430" y="130" width="8" height="8" class="led red"/>
  <rect x="440" y="130" width="8" height="8" class="led red"/>
  <rect x="410" y="140" width="8" height="8" class="led red"/>
  <rect x="450" y="140" width="8" height="8" class="led red"/>
  <rect x="420" y="150" width="8" height="8" class="led red"/>
  <rect x="430" y="150" width="8" height="8" class="led red"/>
  <rect x="440" y="150" width="8" height="8" class="led red"/>
  
  <!-- Separator line -->
  <rect x="0" y="170" width="640" height="2" fill="#404040"/>
  
  <!-- Camera icon (on) - Green, left side - improved rectangle + triangle -->
  <!-- Camera body -->
  <rect x="100" y="185" width="8" height="8" class="led green"/>
  <rect x="110" y="185" width="8" height="8" class="led green"/>
  <rect x="120" y="185" width="8" height="8" class="led green"/>
  <rect x="130" y="185" width="8" height="8" class="led green"/>
  <rect x="140" y="185" width="8" height="8" class="led green"/>
  <rect x="100" y="195" width="8" height="8" class="led green"/>
  <rect x="110" y="195" width="8" height="8" class="led green"/>
  <rect x="120" y="195" width="8" height="8" class="led green"/>
  <rect x="130" y="195" width="8" height="8" class="led green"/>
  <rect x="140" y="195" width="8" height="8" class="led green"/>
  <rect x="100" y="205" width="8" height="8" class="led green"/>
  <rect x="110" y="205" width="8" height="8" class="led green"/>
  <rect x="120" y="205" width="8" height="8" class="led green"/>
  <rect x="130" y="205" width="8" height="8" class="led green"/>
  <rect x="140" y="205" width="8" height="8" class="led green"/>
  <rect x="100" y="215" width="8" height="8" class="led green"/>
  <rect x="110" y="215" width="8" height="8" class="led green"/>
  <rect x="120" y="215" width="8" height="8" class="led green"/>
  <rect x="130" y="215" width="8" height="8" class="led green"/>
  <rect x="140" y="215" width="8" height="8" class="led green"/>
  <!-- Lens triangle -->
  <rect x="160" y="195" width="8" height="8" class="led green"/>
  <rect x="170" y="195" width="8" height="8" class="led green"/>
  <rect x="160" y="205" width="8" height="8" class="led green"/>
  <rect x="170" y="205" width="8" height="8" class="led green"/>
  <rect x="180" y="200" width="8" height="8" class="led green"/>
  
  <!-- "ON" label -->
  <rect x="200" y="195" width="8" height="8" class="led green"/>
  <rect x="210" y="195" width="8" height="8" class="led green"/>
  <rect x="220" y="195" width="8" height="8" class="led green"/>
  <rect x="200" y="205" width="8" height="8" class="led green"/>
  <rect x="220" y="205" width="8" height="8" class="led green"/>
  <rect x="200" y="215" width="8" height="8" class="led green"/>
  <rect x="210" y="215" width="8" height="8" class="led green"/>
  <rect x="220" y="215" width="8" height="8" class="led green"/>
  
  <!-- Microphone icon (muted) - Red, right side -->
  <!-- Mic head -->
  <rect x="400" y="185" width="8" height="8" class="led red"/>
  <rect x="410" y="185" width="8" height="8" class="led red"/>
  <rect x="420" y="185" width="8" height="8" class="led red"/>
  <rect x="400" y="195" width="8" height="8" class="led red"/>
  <rect x="410" y="195" width="8" height="8" class="led red"/>
  <rect x="420" y="195" width="8" height="8" class="led red"/>
  <rect x="400" y="205" width="8" height="8" class="led red"/>
  <rect x="410" y="205" width="8" height="8" class="led red"/>
  <rect x="420" y="205" width="8" height="8" class="led red"/>
  <!-- Mic stand -->
  <rect x="390" y="215" width="8" height="8" class="led red"/>
  <rect x="410" y="215" width="8" height="8" class="led red"/>
  <rect x="430" y="215" width="8" height="8" class="led red"/>
  <rect x="400" y="225" width="8" height="8" class="led red"/>
  <rect x="410" y="225" width="8" height="8" class="led red"/>
  <rect x="420" y="225" width="8" height="8" class="led red"/>
  <!-- Slash through (muted) -->
  <rect x="390" y="185" width="8" height="8" class="led red"/>
  <rect x="430" y="225" width="8" height="8" class="led red"/>
  
  <!-- "MUTED" label -->
  <rect x="460" y="195" width="8" height="8" class="led red"/>
  <rect x="500" y="195" width="8" height="8" class="led red"/>
  <rect x="460" y="205" width="8" height="8" class="led red"/>
  <rect x="470" y="205" width="8" height="8" class="led red"/>
  <rect x="490" y="205" width="8" height="8" class="led red"/>
  <rect x="500" y="205" width="8" height="8" class="led red"/>
  <rect x="460" y="215" width="8" height="8" class="led red"/>
  <rect x="480" y="215" width="8" height="8" class="led red"/>
  <rect x="500" y="215" width="8" height="8" class="led red"/>
  
  <!-- "72°F" bottom left -->
  <rect x="40" y="260" width="8" height="8" class="led cyan"/>
  <rect x="50" y="260" width="8" height="8" class="led cyan"/>
  <rect x="60" y="260" width="8" height="8" class="led cyan"/>
  <rect x="70" y="260" width="8" height="8" class="led cyan"/>
  <rect x="70" y="270" width="8" height="8" class="led cyan"/>
  <rect x="60" y="280" width="8" height="8" class="led cyan"/>
  <rect x="50" y="290" width="8" height="8" class="led cyan"/>
  <rect x="50" y="300" width="8" height="8" class="led cyan"/>
  <rect x="90" y="260" width="8" height="8" class="led cyan"/>
  <rect x="100" y="260" width="8" height="8" class="led cyan"/>
  <rect x="110" y="260" width="8" height="8" class="led cyan"/>
  <rect x="110" y="270" width="8" height="8" class="led cyan"/>
  <rect x="100" y="280" width="8" height="8" class="led cyan"/>
  <rect x="90" y="290" width="8" height="8" class="led cyan"/>
  <rect x="90" y="300" width="8" height="8" class="led cyan"/>
  <rect x="100" y="300" width="8" height="8" class="led cyan"/>
  <rect x="110" y="300" width="8" height="8" class="led cyan"/>
  <rect x="130" y="260" width="6" height="6" class="led cyan"/>
  <rect x="150" y="260" width="8" height="8" class="led cyan"/>
  <rect x="160" y="260" width="8" height="8" class="led cyan"/>
  <rect x="170" y="260" width="8" height="8" class="led cyan"/>
  <rect x="150" y="270" width="8" height="8" class="led cyan"/>
  <rect x="150" y="280" width="8" height="8" class="led cyan"/>
  <rect x="160" y="280" width="8" height="8" class="led cyan"/>
  <rect x="150" y="290" width="8" height="8" class="led cyan"/>
  <rect x="150" y="300" width="8" height="8" class="led cyan"/>
  
  <!-- "Good" bottom right -->
  <rect x="470" y="260" width="8" height="8" class="led green"/>
  <rect x="480" y="260" width="8" height="8" class="led green"/>
  <rect x="490" y="260" width="8" height="8" class="led green"/>
  <rect x="460" y="270" width="8" height="8" class="led green"/>
  <rect x="460" y="280" width="8" height="8" class="led green"/>
  <rect x="480" y="280" width="8" height="8" class="led green"/>
  <rect x="490" y="280" width="8" height="8" class="led green"/>
  <rect x="460" y="290" width="8" height="8" class="led green"/>
  <rect x="500" y="290" width="8" height="8" class="led green"/>
  <rect x="470" y="300" width="8" height="8" class="led green"/>
  <rect x="480" y="300" width="8" height="8" class="led green"/>
  <rect x="490" y="300" width="8" height="8" class="led green"/>
  <rect x="520" y="270" width="8" height="8" class="led green"/>
  <rect x="530" y="270" width="8" height="8" class="led green"/>
  <rect x="510" y="280" width="8" height="8" class="led green"/>
  <rect x="540" y="280" width="8" height="8" class="led green"/>
  <rect x="510" y="290" width="8" height="8" class="led green"/>
  <rect x="540" y="290" width="8" height="8" class="led green"/>
  <rect x="520" y="300" width="8" height="8" class="led green"/>
  <rect x="530" y="300" width="8" height="8" class="led green"/>
  <rect x="560" y="270" width="8" height="8" class="led green"/>
  <rect x="570" y="270" width="8" height="8" class="led green"/>
  <rect x="550" y="280" width="8" height="8" class="led green"/>
  <rect x="580" y="280" width="8" height="8" class="led green"/>
  <rect x="550" y="290" width="8" height="8" class="led green"/>
  <rect x="580" y="290" width="8" height="8" class="led green"/>
  <rect x="560" y="300" width="8" height="8" class="led green"/>
  <rect x="570" y="300" width="8" height="8" class="led green"/>
  <rect x="610" y="260" width="8" height="8" class="led green"/>
  <rect x="600" y="270" width="8" height="8" class="led green"/>
  <rect x="610" y="270" width="8" height="8" class="led green"/>
  <rect x="590" y="280" width="8" height="8" class="led green"/>
  <rect x="610" y="280" width="8" height="8" class="led green"/>
  <rect x="590" y="290" width="8" height="8" class="led green"/>
  <rect x="610" y="290" width="8" height="8" class="led green"/>
  <rect x="600" y="300" width="8" height="8" class="led green"/>
  <rect x="610" y="300" width="8" height="8" class="led green"/>
  
  <!-- Panel frame -->
  <rect x="0" y="0" width="640" height="320" fill="none" stroke="#333" stroke-width="4"/>
</svg>
