<svg xmlns="http://www.w3.org/2000/svg" viewBox="0 0 640 320" width="640" height="320">
  <defs>
    <style>
      .led { rx: 3; ry: 3; }
      .red { fill: #FF0000; }
      .green { fill: #00FF00; }
      .cyan { fill: #00FFFF; }
    </style>
  </defs>

  <!-- Black background -->
  <rect width="640" height="320" fill="#0a0a0a"/>

  <!-- Grid pattern -->
  <g opacity="0.08">
    <pattern id="grid" width="10" height="10" patternUnits="userSpaceOnUse">
      <rect width="8" height="8" fill="#222" rx="2" ry="2"/>
    </pattern>
    <rect width="640" height="320" fill="url(#grid)"/>
  </g>

  <!-- Status Circle centered - Red (In Meeting) -->
  <rect x="280" y="10" width="8" height="8" class="led red"/>
  <rect x="290" y="10" width="8" height="8" class="led red"/>
  <rect x="300" y="10" width="8" height="8" class="led red"/>
  <rect x="310" y="10" width="8" height="8" class="led red"/>
  <rect x="320" y="10" width="8" height="8" class="led red"/>
  <rect x="330" y="10" width="8" height="8" class="led red"/>
  <rect x="340" y="10" width="8" height="8" class="led red"/>
  <rect x="350" y="10" width="8" height="8" class="led red"/>

  <rect x="270" y="20" width="8" height="8" class="led red"/>
  <rect x="280" y="20" width="8" height="8" class="led red"/>
  <rect x="290" y="20" width="8" height="8" class="led red"/>
  <rect x="300" y="20" width="8" height="8" class="led red"/>
  <rect x="310" y="20" width="8" height="8" class="led red"/>
  <rect x="320" y="20" width="8" height="8" class="led red"/>
  <rect x="330" y="20" width="8" height="8" class="led red"/>
  <rect x="340" y="20" width="8" height="8" class="led red"/>
  <rect x="350" y="20" width="8" height="8" class="led red"/>
  <rect x="360" y="20" width="8" height="8" class="led red"/>

  <rect x="260" y="30" width="8" height="8" class="led red"/>
  <rect x="270" y="30" width="8" height="8" class="led red"/>
  <rect x="280" y="30" width="8" height="8" class="led red"/>
  <rect x="290" y="30" width="8" height="8" class="led red"/>
  <rect x="300" y="30" width="8" height="8" class="led red"/>
  <rect x="310" y="30" width="8" height="8" class="led red"/>
  <rect x="320" y="30" width="8" height="8" class="led red"/>
  <rect x="330" y="30" width="8" height="8" class="led red"/>
  <rect x="340" y="30" width="8" height="8" class="led red"/>
  <rect x="350" y="30" width="8" height="8" class="led red"/>
  <rect x="360" y="30" width="8" height="8" class="led red"/>
  <rect x="370" y="30" width="8" height="8" class="led red"/>

  <rect x="260" y="40" width="8" height="8" class="led red"/>
  <rect x="270" y="40" width="8" height="8" class="led red"/>
  <rect x="280" y="40" width="8" height="8" class="led red"/>
  <rect x="290" y="40" width="8" height="8" class="led red"/>
  <rect x="300" y="40" width="8" height="8" class="led red"/>
  <rect x="310" y="40" width="8" height="8" class="led red"/>
  <rect x="320" y="40" width="8" height="8" class="led red"/>
  <rect x="330" y="40" width="8" height="8" class="led red"/>
  <rect x="340" y="40" width="8" height="8" class="led red"/>
  <rect x="350" y="40" width="8" height="8" class="led red"/>
  <rect x="360" y="40" width="8" height="8" class="led red"/>
  <rect x="370" y="40" width="8" height="8" class="led red"/>

  <rect x="260" y="50" width="8" height="8" class="led red"/>
  <rect x="270" y="50" width="8" height="8" class="led red"/>
  <rect x="280" y="50" width="8" height="8" class="led red"/>
  <rect x="290" y="50" width="8" height="8" class="led red"/>
  <rect x="300" y="50" width="8" height="8" class="led red"/>
  <rect x="310" y="50" width="8" height="8" class="led red"/>
  <rect x="320" y="50" width="8" height="8" class="led red"/>
  <rect x="330" y="50" width="8" height="8" class="led red"/>
  <rect x="340" y="50" width="8" height="8" class="led red"/>
  <rect x="350" y="50" width="8" height="8" class="led red"/>
  <rect x="360" y="50" width="8" height="8" class="led red"/>
  <rect x="370" y="50" width="8" height="8" class="led red"/>

  <rect x="270" y="60" width="8" height="8" class="led red"/>
  <rect x="280" y="60" width="8" height="8" class="led red"/>
  <rect x="290" y="60" width="8" height="8" class="led red"/>
  <rect x="300" y="60" width="8" height="8" class="led red"/>
  <rect x="310" y="60" width="8" height="8" class="led red"/>
  <rect x="320" y="60" width="8" height="8" class="led red"/>
  <rect x="330" y="60" width="8" height="8" class="led red"/>
  <rect x="340" y="60" width="8" height="8" class="led red"/>
  <rect x="350" y="60" width="8" height="8" class="led red"/>
  <rect x="360" y="60" width="8" height="8" class="led red"/>

  <rect x="280" y="70" width="8" height="8" class="led red"/>
  <rect x="290" y="70" width="8" height="8" class="led red"/>
  <rect x="300" y="70" width="8" height="8" class="led red"/>
  <rect x="310" y="70" width="8" height="8" class="led red"/>
  <rect x="320" y="70" width="8" height="8" class="led red"/>
  <rect x="330" y="70" width="8" height="8" class="led red"/>
  <rect x="340" y="70" width="8" height="8" class="led red"/>
  <rect x="350" y="70" width="8" height="8" class="led red"/>

  <!-- "IN A CALL" text centered in red -->
  <!-- I -->
  <rect x="140" y="90" width="8" height="8" class="led red"/>
  <rect x="150" y="90" width="8" height="8" class="led red"/>
  <rect x="160" y="90" width="8" height="8" class="led red"/>
  <rect x="150" y="100" width="8" height="8" class="led red"/>
  <rect x="150" y="110" width="8" height="8" class="led red"/>
  <rect x="140" y="120" width="8" height="8" class="led red"/>
  <rect x="150" y="120" width="8" height="8" class="led red"/>
  <rect x="160" y="120" width="8" height="8" class="led red"/>
  <!-- N -->
  <rect x="180" y="90" width="8" height="8" class="led red"/>
  <rect x="210" y="90" width="8" height="8" class="led red"/>
  <rect x="180" y="100" width="8" height="8" class="led red"/>
  <rect x="190" y="100" width="8" height="8" class="led red"/>
  <rect x="210" y="100" width="8" height="8" class="led red"/>
  <rect x="180" y="110" width="8" height="8" class="led red"/>
  <rect x="200" y="110" width="8" height="8" class="led red"/>
  <rect x="210" y="110" width="8" height="8" class="led red"/>
  <rect x="180" y="120" width="8" height="8" class="led red"/>
  <rect x="210" y="120" width="8" height="8" class="led red"/>
  <!-- A -->
  <rect x="245" y="90" width="8" height="8" class="led red"/>
  <rect x="255" y="90" width="8" height="8" class="led red"/>
  <rect x="235" y="100" width="8" height="8" class="led red"/>
  <rect x="265" y="100" width="8" height="8" class="led red"/>
  <rect x="235" y="110" width="8" height="8" class="led red"/>
  <rect x="245" y="110" width="8" height="8" class="led red"/>
  <rect x="255" y="110" width="8" height="8" class="led red"/>
  <rect x="265" y="110" width="8" height="8" class="led red"/>
  <rect x="235" y="120" width="8" height="8" class="led red"/>
  <rect x="265" y="120" width="8" height="8" class="led red"/>
  <!-- C -->
  <rect x="300" y="90" width="8" height="8" class="led red"/>
  <rect x="310" y="90" width="8" height="8" class="led red"/>
  <rect x="320" y="90" width="8" height="8" class="led red"/>
  <rect x="290" y="100" width="8" height="8" class="led red"/>
  <rect x="290" y="110" width="8" height="8" class="led red"/>
  <rect x="300" y="120" width="8" height="8" class="led red"/>
  <rect x="310" y="120" width="8" height="8" class="led red"/>
  <rect x="320" y="120" width="8" height="8" class="led red"/>
  <!-- A -->
  <rect x="355" y="90" width="8" height="8" class="led red"/>
  <rect x="365" y="90" width="8" height="8" class="led red"/>
  <rect x="345" y="100" width="8" height="8" class="led red"/>
  <rect x="375" y="100" width="8" height="8" class="led red"/>
  <rect x="345" y="110" width="8" height="8" class="led red"/>
  <rect x="355" y="110" width="8" height="8" class="led red"/>
  <rect x="365" y="110" width="8" height="8" class="led red"/>
  <rect x="375" y="110" width="8" height="8" class="led red"/>
  <rect x="345" y="120" width="8" height="8" class="led red"/>
  <rect x="375" y="120" width="8" height="8" class="led red"/>
  <!-- L -->
  <rect x="395" y="90" width="8" height="8" class="led red"/>
  <rect x="395" y="100" width="8" height="8" class="led red"/>
  <rect x="395" y="110" width="8" height="8" class="led red"/>
  <rect x="395" y="120" width="8" height="8" class="led red"/>
  <rect x="405" y="120" width="8" height="8" class="led red"/>
  <rect x="415" y="120" width="8" height="8" class="led red"/>
  <!-- L -->
  <rect x="435" y="90" width="8" height="8" class="led red"/>
  <rect x="435" y="100" width="8" height="8" class="led red"/>
  <rect x="435" y="110" width="8" height="8" class="led red"/>
  <rect x="435" y="120" width="8" height="8" class="led red"/>
  <rect x="445" y="120" width="8" height="8" class="led red"/>
  <rect x="455" y="120" width="8" height="8" class="led red"/>

  <!-- Separator -->
  <rect x="0" y="135" width="640" height="2" fill="#404040"/>

  <!-- Camera icon (ON) - GREEN - improved design -->
  <!-- Camera body - solid rectangle -->
  <rect x="80" y="150" width="8" height="8" class="led green"/>
  <rect x="90" y="150" width="8" height="8" class="led green"/>
  <rect x="100" y="150" width="8" height="8" class="led green"/>
  <rect x="110" y="150" width="8" height="8" class="led green"/>
  <rect x="120" y="150" width="8" height="8" class="led green"/>
  <rect x="80" y="160" width="8" height="8" class="led green"/>
  <rect x="90" y="160" width="8" height="8" class="led green"/>
  <rect x="100" y="160" width="8" height="8" class="led green"/>
  <rect x="110" y="160" width="8" height="8" class="led green"/>
  <rect x="120" y="160" width="8" height="8" class="led green"/>
  <rect x="80" y="170" width="8" height="8" class="led green"/>
  <rect x="90" y="170" width="8" height="8" class="led green"/>
  <rect x="100" y="170" width="8" height="8" class="led green"/>
  <rect x="110" y="170" width="8" height="8" class="led green"/>
  <rect x="120" y="170" width="8" height="8" class="led green"/>
  <rect x="80" y="180" width="8" height="8" class="led green"/>
  <rect x="90" y="180" width="8" height="8" class="led green"/>
  <rect x="100" y="180" width="8" height="8" class="led green"/>
  <rect x="110" y="180" width="8" height="8" class="led green"/>
  <rect x="120" y="180" width="8" height="8" class="led green"/>
  <!-- Lens/viewfinder triangle -->
  <rect x="140" y="155" width="8" height="8" class="led green"/>
  <rect x="150" y="160" width="8" height="8" class="led green"/>
  <rect x="160" y="165" width="8" height="8" class="led green"/>
  <rect x="150" y="170" width="8" height="8" class="led green"/>
  <rect x="140" y="175" width="8" height="8" class="led green"/>

  <!-- "ON" label -->
  <rect x="185" y="155" width="8" height="8" class="led green"/>
  <rect x="195" y="155" width="8" height="8" class="led green"/>
  <rect x="180" y="165" width="8" height="8" class="led green"/>
  <rect x="200" y="165" width="8" height="8" class="led green"/>
  <rect x="185" y="175" width="8" height="8" class="led green"/>
  <rect x="195" y="175" width="8" height="8" class="led green"/>
  <rect x="220" y="155" width="8" height="8" class="led green"/>
  <rect x="240" y="155" width="8" height="8" class="led green"/>
  <rect x="220" y="165" width="8" height="8" class="led green"/>
  <rect x="230" y="165" width="8" height="8" class="led green"/>
  <rect x="240" y="165" width="8" height="8" class="led green"/>
  <rect x="220" y="175" width="8" height="8" class="led green"/>
  <rect x="240" y="175" width="8" height="8" class="led green"/>

  <!-- Microphone icon (MUTED) - RED -->
  <!-- Mic head - rounded top -->
  <rect x="390" y="150" width="8" height="8" class="led red"/>
  <rect x="400" y="150" width="8" height="8" class="led red"/>
  <rect x="410" y="150" width="8" height="8" class="led red"/>
  <rect x="385" y="160" width="8" height="8" class="led red"/>
  <rect x="395" y="160" width="8" height="8" class="led red"/>
  <rect x="405" y="160" width="8" height="8" class="led red"/>
  <rect x="415" y="160" width="8" height="8" class="led red"/>
  <rect x="385" y="170" width="8" height="8" class="led red"/>
  <rect x="395" y="170" width="8" height="8" class="led red"/>
  <rect x="405" y="170" width="8" height="8" class="led red"/>
  <rect x="415" y="170" width="8" height="8" class="led red"/>
  <rect x="390" y="180" width="8" height="8" class="led red"/>
  <rect x="400" y="180" width="8" height="8" class="led red"/>
  <rect x="410" y="180" width="8" height="8" class="led red"/>
  <!-- Mic stand -->
  <rect x="400" y="190" width="8" height="8" class="led red"/>
  <rect x="390" y="200" width="8" height="8" class="led red"/>
  <rect x="400" y="200" width="8" height="8" class="led red"/>
  <rect x="410" y="200" width="8" height="8" class="led red"/>
  <!-- Slash through for muted -->
  <rect x="380" y="150" width="8" height="8" class="led red"/>
  <rect x="420" y="200" width="8" height="8" class="led red"/>

  <!-- "OFF" label -->
  <rect x="450" y="155" width="8" height="8" class="led red"/>
  <rect x="460" y="155" width="8" height="8" class="led red"/>
  <rect x="445" y="165" width="8" height="8" class="led red"/>
  <rect x="465" y="165" width="8" height="8" class="led red"/>
  <rect x="450" y="175" width="8" height="8" class="led red"/>
  <rect x="460" y="175" width="8" height="8" class="led red"/>
  <rect x="485" y="155" width="8" height="8" class="led red"/>
  <rect x="495" y="155" width="8" height="8" class="led red"/>
  <rect x="505" y="155" width="8" height="8" class="led red"/>
  <rect x="485" y="165" width="8" height="8" class="led red"/>
  <rect x="485" y="175" width="8" height="8" class="led red"/>
  <rect x="495" y="175" width="8" height="8" class="led red"/>
  <rect x="525" y="155" width="8" height="8" class="led red"/>
  <rect x="535" y="155" width="8" height="8" class="led red"/>
  <rect x="545" y="155" width="8" height="8" class="led red"/>
  <rect x="525" y="165" width="8" height="8" class="led red"/>
  <rect x="525" y="175" width="8" height="8" class="led red"/>
  <rect x="535" y="175" width="8" height="8" class="led red"/>

  <!-- Separator 2 -->
  <rect x="0" y="220" width="640" height="2" fill="#404040"/>

  <!-- Bottom: 72°F | 45% | AQ 87 - CYAN -->
  <rect x="60" y="240" width="8" height="8" class="led cyan"/>
  <rect x="70" y="240" width="8" height="8" class="led cyan"/>
  <rect x="80" y="240" width="8" height="8" class="led cyan"/>
  <rect x="80" y="250" width="8" height="8" class="led cyan"/>
  <rect x="70" y="260" width="8" height="8" class="led cyan"/>
  <rect x="60" y="270" width="8" height="8" class="led cyan"/>
  <rect x="60" y="280" width="8" height="8" class="led cyan"/>
  <rect x="100" y="240" width="8" height="8" class="led cyan"/>
  <rect x="110" y="240" width="8" height="8" class="led cyan"/>
  <rect x="120" y="240" width="8" height="8" class="led cyan"/>
  <rect x="120" y="250" width="8" height="8" class="led cyan"/>
  <rect x="110" y="260" width="8" height="8" class="led cyan"/>
  <rect x="100" y="270" width="8" height="8" class="led cyan"/>
  <rect x="100" y="280" width="8" height="8" class="led cyan"/>
  <rect x="110" y="280" width="8" height="8" class="led cyan"/>
  <rect x="120" y="280" width="8" height="8" class="led cyan"/>
  <rect x="135" y="240" width="6" height="6" class="led cyan"/>
  <rect x="150" y="240" width="8" height="8" class="led cyan"/>
  <rect x="160" y="240" width="8" height="8" class="led cyan"/>
  <rect x="170" y="240" width="8" height="8" class="led cyan"/>
  <rect x="150" y="250" width="8" height="8" class="led cyan"/>
  <rect x="150" y="260" width="8" height="8" class="led cyan"/>
  <rect x="160" y="260" width="8" height="8" class="led cyan"/>
  <rect x="150" y="270" width="8" height="8" class="led cyan"/>
  <rect x="150" y="280" width="8" height="8" class="led cyan"/>
  <rect x="255" y="240" width="8" height="8" class="led cyan"/>
  <rect x="275" y="240" width="8" height="8" class="led cyan"/>
  <rect x="255" y="250" width="8" height="8" class="led cyan"/>
  <rect x="275" y="250" width="8" height="8" class="led cyan"/>
  <rect x="255" y="260" width="8" height="8" class="led cyan"/>
  <rect x="265" y="260" width="8" height="8" class="led cyan"/>
  <rect x="275" y="260" width="8" height="8" class="led cyan"/>
  <rect x="275" y="270" width="8" height="8" class="led cyan"/>
  <rect x="275" y="280" width="8" height="8" class="led cyan"/>
  <rect x="295" y="240" width="8" height="8" class="led cyan"/>
  <rect x="305" y="240" width="8" height="8" class="led cyan"/>
  <rect x="315" y="240" width="8" height="8" class="led cyan"/>
  <rect x="295" y="250" width="8" height="8" class="led cyan"/>
  <rect x="295" y="260" width="8" height="8" class="led cyan"/>
  <rect x="305" y="260" width="8" height="8" class="led cyan"/>
  <rect x="315" y="260" width="8" height="8" class="led cyan"/>
  <rect x="320" y="270" width="8" height="8" class="led cyan"/>
  <rect x="295" y="280" width="8" height="8" class="led cyan"/>
  <rect x="305" y="280" width="8" height="8" class="led cyan"/>
  <rect x="315" y="280" width="8" height="8" class="led cyan"/>
  <rect x="340" y="240" width="8" height="8" class="led cyan"/>
  <rect x="360" y="240" width="8" height="8" class="led cyan"/>
  <rect x="355" y="250" width="8" height="8" class="led cyan"/>
  <rect x="350" y="260" width="8" height="8" class="led cyan"/>
  <rect x="345" y="270" width="8" height="8" class="led cyan"/>
  <rect x="340" y="280" width="8" height="8" class="led cyan"/>
  <rect x="360" y="280" width="8" height="8" class="led cyan"/>
  <rect x="440" y="240" width="8" height="8" class="led cyan"/>
  <rect x="450" y="240" width="8" height="8" class="led cyan"/>
  <rect x="435" y="250" width="8" height="8" class="led cyan"/>
  <rect x="455" y="250" width="8" height="8" class="led cyan"/>
  <rect x="435" y="260" width="8" height="8" class="led cyan"/>
  <rect x="440" y="260" width="8" height="8" class="led cyan"/>
  <rect x="450" y="260" width="8" height="8" class="led cyan"/>
  <rect x="455" y="260" width="8" height="8" class="led cyan"/>
  <rect x="435" y="270" width="8" height="8" class="led cyan"/>
  <rect x="455" y="270" width="8" height="8" class="led cyan"/>
  <rect x="480" y="240" width="8" height="8" class="led cyan"/>
  <rect x="490" y="240" width="8" height="8" class="led cyan"/>
  <rect x="475" y="250" width="8" height="8" class="led cyan"/>
  <rect x="495" y="250" width="8" height="8" class="led cyan"/>
  <rect x="475" y="260" width="8" height="8" class="led cyan"/>
  <rect x="495" y="260" width="8" height="8" class="led cyan"/>
  <rect x="480" y="270" width="8" height="8" class="led cyan"/>
  <rect x="490" y="270" width="8" height="8" class="led cyan"/>
  <rect x="500" y="270" width="8" height="8" class="led cyan"/>
  <rect x="525" y="240" width="8" height="8" class="led cyan"/>
  <rect x="535" y="240" width="8" height="8" class="led cyan"/>
  <rect x="520" y="250" width="8" height="8" class="led cyan"/>
  <rect x="540" y="250" width="8" height="8" class="led cyan"/>
  <rect x="525" y="260" width="8" height="8" class="led cyan"/>
  <rect x="535" y="260" width="8" height="8" class="led cyan"/>
  <rect x="520" y="270" width="8" height="8" class="led cyan"/>
  <rect x="540" y="270" width="8" height="8" class="led cyan"/>
  <rect x="525" y="280" width="8" height="8" class="led cyan"/>
  <rect x="535" y="280" width="8" height="8" class="led cyan"/>
  <rect x="560" y="240" width="8" height="8" class="led cyan"/>
  <rect x="570" y="240" width="8" height="8" class="led cyan"/>
  <rect x="580" y="240" width="8" height="8" class="led cyan"/>
  <rect x="580" y="250" width="8" height="8" class="led cyan"/>
  <rect x="575" y="260" width="8" height="8" class="led cyan"/>
  <rect x="570" y="270" width="8" height="8" class="led cyan"/>
  <rect x="570" y="280" width="8" height="8" class="led cyan"/>

  <!-- Panel frame -->
  <rect x="0" y="0" width="640" height="320" fill="none" stroke="#333" stroke-width="4"/>
</svg>
